<svg width="23" height="23" viewBox="0 0 23 23" fill="none" xmlns="http://www.w3.org/2000/svg">
<circle cx="11.5" cy="11.5" r="11.5" fill="#7BD152" fill-opacity="1"/>
<path d="M7.59938 12.1841C7.3914 11.9446 7.1204 11.8147 6.84073 11.8203C6.56106 11.826 6.2934 11.9669 6.09146 12.2147C5.88951 12.4625 5.76821 12.7989 5.75189 13.1564C5.73557 13.514 5.82543 13.8662 6.00345 14.1424L8.46384 17.4489C8.56685 17.5873 8.69063 17.6976 8.82775 17.7732C8.96487 17.8488 9.11251 17.8881 9.2618 17.8888C9.4103 17.8899 9.55746 17.8528 9.69454 17.7797C9.83162 17.7066 9.95582 17.5989 10.0598 17.4631L17.5739 7.52948C17.6758 7.39531 17.756 7.23675 17.8101 7.06286C17.8641 6.88898 17.8908 6.70317 17.8888 6.51605C17.8867 6.32893 17.8559 6.14416 17.7981 5.9723C17.7402 5.80043 17.6565 5.64483 17.5518 5.51438C17.447 5.38393 17.3231 5.28118 17.1873 5.21201C17.0515 5.14284 16.9064 5.10859 16.7603 5.11123C16.6141 5.11386 16.4698 5.15333 16.3356 5.22737C16.2014 5.30141 16.0799 5.40858 15.978 5.54276L9.2618 14.1424L7.59938 12.1841Z" fill="white"/>
</svg>
