<svg width="362" height="165" viewBox="0 0 362 165" fill="none" xmlns="http://www.w3.org/2000/svg">
<g filter="url(#filter0_f)">
<path d="M331.075 133L327 132.216L329.215 131L334 131.902L331.075 133Z" fill="url(#paint0_linear)"/>
</g>
<rect width="362" height="165" fill="#F5F7FF"/>
<g filter="url(#filter1_d)">
<path d="M135.646 122.392C136.692 122.392 137.595 122.605 138.355 123.029C139.118 123.451 139.702 124.058 140.106 124.853C140.513 125.647 140.717 126.591 140.717 127.686C140.717 128.784 140.513 129.732 140.106 130.529C139.698 131.327 139.109 131.938 138.339 132.363C137.569 132.788 136.649 133 135.579 133H131.989V122.392H135.646ZM135.485 131.348C136.594 131.348 137.428 131.042 137.987 130.431C138.547 129.82 138.826 128.905 138.826 127.686C138.826 126.474 138.55 125.564 137.998 124.956C137.445 124.348 136.627 124.045 135.542 124.045H133.89V131.348H135.485ZM145.801 133.155C145.035 133.155 144.363 132.986 143.786 132.648C143.213 132.306 142.769 131.826 142.455 131.208C142.144 130.586 141.989 129.868 141.989 129.053C141.989 128.238 142.144 127.52 142.455 126.898C142.769 126.277 143.213 125.795 143.786 125.453C144.363 125.112 145.035 124.941 145.801 124.941C146.568 124.941 147.238 125.112 147.811 125.453C148.388 125.795 148.831 126.277 149.142 126.898C149.453 127.52 149.608 128.238 149.608 129.053C149.608 129.868 149.453 130.586 149.142 131.208C148.831 131.826 148.388 132.306 147.811 132.648C147.238 132.986 146.568 133.155 145.801 133.155ZM145.806 131.664C146.217 131.664 146.566 131.55 146.853 131.322C147.139 131.09 147.355 130.778 147.5 130.384C147.645 129.991 147.718 129.545 147.718 129.048C147.718 128.551 147.645 128.104 147.5 127.706C147.355 127.309 147.139 126.995 146.853 126.764C146.566 126.532 146.217 126.417 145.806 126.417C145.389 126.417 145.035 126.532 144.745 126.764C144.455 126.995 144.237 127.309 144.092 127.706C143.947 128.104 143.874 128.551 143.874 129.048C143.874 129.545 143.947 129.991 144.092 130.384C144.237 130.778 144.455 131.09 144.745 131.322C145.035 131.55 145.389 131.664 145.806 131.664ZM156.5 133H154.636V125.044H156.5V133ZM155.573 123.91C155.376 123.91 155.193 123.865 155.024 123.775C154.858 123.685 154.727 123.563 154.63 123.407C154.534 123.252 154.485 123.083 154.485 122.9C154.485 122.713 154.534 122.542 154.63 122.387C154.727 122.232 154.858 122.109 155.024 122.019C155.193 121.93 155.376 121.885 155.573 121.885C155.766 121.885 155.944 121.931 156.107 122.025C156.272 122.114 156.404 122.237 156.5 122.392C156.6 122.548 156.65 122.717 156.65 122.9C156.65 123.083 156.6 123.252 156.5 123.407C156.404 123.563 156.272 123.685 156.107 123.775C155.944 123.865 155.766 123.91 155.573 123.91ZM161.607 131.539C161.78 131.539 162.032 131.527 162.364 131.503V133.031C162.046 133.083 161.694 133.109 161.307 133.109C160.827 133.109 160.399 133.029 160.023 132.871C159.65 132.708 159.356 132.463 159.142 132.135C158.931 131.807 158.826 131.401 158.826 130.918V126.484H157.697V125.044H158.826V123.138H160.691V125.044H162.255V126.484H160.691V130.607C160.691 130.859 160.729 131.054 160.805 131.192C160.884 131.327 160.989 131.419 161.121 131.467C161.255 131.515 161.418 131.539 161.607 131.539ZM167.537 122.392H169.531L169.365 129.887H167.708L167.537 122.392ZM168.537 133.114C168.333 133.114 168.143 133.064 167.967 132.964C167.791 132.86 167.651 132.722 167.547 132.549C167.447 132.373 167.399 132.183 167.402 131.98C167.399 131.776 167.447 131.588 167.547 131.415C167.651 131.242 167.791 131.106 167.967 131.006C168.143 130.906 168.333 130.856 168.537 130.856C168.737 130.856 168.923 130.906 169.096 131.006C169.272 131.106 169.412 131.242 169.516 131.415C169.619 131.588 169.671 131.776 169.671 131.98C169.671 132.183 169.619 132.373 169.516 132.549C169.412 132.722 169.272 132.86 169.096 132.964C168.923 133.064 168.737 133.114 168.537 133.114Z" fill="#C9D2FF"/>
<path d="M182.477 122.392C183.523 122.392 184.426 122.605 185.186 123.029C185.949 123.451 186.533 124.058 186.937 124.853C187.344 125.647 187.548 126.591 187.548 127.686C187.548 128.784 187.344 129.732 186.937 130.529C186.529 131.327 185.941 131.938 185.17 132.363C184.4 132.788 183.48 133 182.41 133H178.82V122.392H182.477ZM182.317 131.348C183.425 131.348 184.259 131.042 184.818 130.431C185.378 129.82 185.657 128.905 185.657 127.686C185.657 126.474 185.381 125.564 184.829 124.956C184.276 124.348 183.458 124.045 182.374 124.045H180.721V131.348H182.317ZM192.632 133.155C191.866 133.155 191.194 132.986 190.617 132.648C190.044 132.306 189.601 131.826 189.286 131.208C188.976 130.586 188.82 129.868 188.82 129.053C188.82 128.238 188.976 127.52 189.286 126.898C189.601 126.277 190.044 125.795 190.617 125.453C191.194 125.112 191.866 124.941 192.632 124.941C193.399 124.941 194.069 125.112 194.642 125.453C195.219 125.795 195.662 126.277 195.973 126.898C196.284 127.52 196.439 128.238 196.439 129.053C196.439 129.868 196.284 130.586 195.973 131.208C195.662 131.826 195.219 132.306 194.642 132.648C194.069 132.986 193.399 133.155 192.632 133.155ZM192.637 131.664C193.048 131.664 193.397 131.55 193.684 131.322C193.97 131.09 194.186 130.778 194.331 130.384C194.476 129.991 194.549 129.545 194.549 129.048C194.549 128.551 194.476 128.104 194.331 127.706C194.186 127.309 193.97 126.995 193.684 126.764C193.397 126.532 193.048 126.417 192.637 126.417C192.22 126.417 191.866 126.532 191.576 126.764C191.286 126.995 191.068 127.309 190.923 127.706C190.778 128.104 190.705 128.551 190.705 129.048C190.705 129.545 190.778 129.991 190.923 130.384C191.068 130.778 191.286 131.09 191.576 131.322C191.866 131.55 192.22 131.664 192.637 131.664ZM205.678 133H203.787L200.804 122.392H202.85L204.771 130.203H204.87L206.91 122.392H208.785L210.836 130.208H210.925L212.846 122.392H214.897L211.909 133H210.018L207.895 125.541H207.812L205.678 133ZM217.892 133H216.027V125.044H217.892V133ZM216.965 123.91C216.768 123.91 216.585 123.865 216.416 123.775C216.25 123.685 216.119 123.563 216.022 123.407C215.925 123.252 215.877 123.083 215.877 122.9C215.877 122.713 215.925 122.542 216.022 122.387C216.119 122.232 216.25 122.109 216.416 122.019C216.585 121.93 216.768 121.885 216.965 121.885C217.158 121.885 217.336 121.931 217.498 122.025C217.664 122.114 217.795 122.237 217.892 122.392C217.992 122.548 218.042 122.717 218.042 122.9C218.042 123.083 217.992 123.252 217.892 123.407C217.795 123.563 217.664 123.685 217.498 123.775C217.336 123.865 217.158 123.91 216.965 123.91ZM222.999 131.539C223.172 131.539 223.424 131.527 223.755 131.503V133.031C223.438 133.083 223.085 133.109 222.699 133.109C222.219 133.109 221.791 133.029 221.414 132.871C221.041 132.708 220.748 132.463 220.534 132.135C220.323 131.807 220.218 131.401 220.218 130.918V126.484H219.089V125.044H220.218V123.138H222.082V125.044H223.647V126.484H222.082V130.607C222.082 130.859 222.12 131.054 222.196 131.192C222.276 131.327 222.381 131.419 222.512 131.467C222.647 131.515 222.809 131.539 222.999 131.539ZM227.12 133H225.256V122.392H227.079V126.396H227.177C227.367 125.933 227.659 125.576 228.053 125.324C228.446 125.068 228.942 124.941 229.539 124.941C230.092 124.941 230.573 125.058 230.984 125.293C231.395 125.524 231.713 125.864 231.937 126.313C232.165 126.762 232.279 127.302 232.279 127.934V133H230.415V128.219C230.415 127.681 230.276 127.263 230 126.966C229.724 126.669 229.339 126.52 228.845 126.52C228.51 126.52 228.212 126.593 227.949 126.738C227.69 126.879 227.486 127.088 227.338 127.365C227.193 127.637 227.12 127.962 227.12 128.338V133ZM234.334 122.392H236.328L236.162 129.887H234.505L234.334 122.392ZM235.334 133.114C235.13 133.114 234.94 133.064 234.764 132.964C234.588 132.86 234.448 132.722 234.344 132.549C234.244 132.373 234.196 132.183 234.199 131.98C234.196 131.776 234.244 131.588 234.344 131.415C234.448 131.242 234.588 131.106 234.764 131.006C234.94 130.906 235.13 130.856 235.334 130.856C235.534 130.856 235.72 130.906 235.893 131.006C236.069 131.106 236.209 131.242 236.313 131.415C236.416 131.588 236.468 131.776 236.468 131.98C236.468 132.183 236.416 132.373 236.313 132.549C236.209 132.722 236.069 132.86 235.893 132.964C235.72 133.064 235.534 133.114 235.334 133.114Z" fill="#3D68FA"/>
</g>
<g filter="url(#filter2_d)">
<g filter="url(#filter3_d)">
<mask id="path-4-inside-1" fill="white">
<path fill-rule="evenodd" clip-rule="evenodd" d="M192.238 58.3832C195.067 41.8541 182.507 24.5693 163.662 21.3289C152.494 19.4085 143.522 26.1525 142.224 34.8943L142.189 34.8887L138.016 61.2514C134.398 70.5544 140.691 81.66 152.974 83.7721C171.818 87.0125 189.409 74.9123 192.238 58.3832Z"/>
</mask>
<path fill-rule="evenodd" clip-rule="evenodd" d="M192.238 58.3832C195.067 41.8541 182.507 24.5693 163.662 21.3289C152.494 19.4085 143.522 26.1525 142.224 34.8943L142.189 34.8887L138.016 61.2514C134.398 70.5544 140.691 81.66 152.974 83.7721C171.818 87.0125 189.409 74.9123 192.238 58.3832Z" fill="white"/>
<path d="M163.662 21.3289L163.323 23.3L163.662 21.3289ZM192.238 58.3832L194.209 58.7207L194.209 58.7207L192.238 58.3832ZM142.224 34.8943L141.912 36.8698L143.906 37.185L144.203 35.188L142.224 34.8943ZM142.189 34.8887L142.501 32.9132L140.526 32.601L140.213 34.576L142.189 34.8887ZM138.016 61.2514L139.88 61.9763L139.958 61.7762L139.991 61.5641L138.016 61.2514ZM152.974 83.7721L152.635 85.7432L152.974 83.7721ZM163.323 23.3C181.203 26.3744 192.889 42.7236 190.267 58.0458L194.209 58.7207C197.245 40.9847 183.811 22.7643 164.001 19.3579L163.323 23.3ZM144.203 35.188C145.315 27.6963 153.117 21.5449 163.323 23.3L164.001 19.3579C151.871 17.272 141.729 24.6087 140.246 34.6006L144.203 35.188ZM141.876 36.8641L141.912 36.8698L142.536 32.9188L142.501 32.9132L141.876 36.8641ZM139.991 61.5641L144.164 35.2013L140.213 34.576L136.04 60.9387L139.991 61.5641ZM153.313 81.801C142.07 79.8677 136.793 69.9128 139.88 61.9763L136.152 60.5265C132.002 71.196 139.312 83.4522 152.635 85.7432L153.313 81.801ZM190.267 58.0458C187.644 73.3665 171.191 84.8752 153.313 81.801L152.635 85.7432C172.445 89.1497 191.173 76.4581 194.209 58.7207L190.267 58.0458Z" fill="#658DFC" mask="url(#path-4-inside-1)"/>
</g>
<g filter="url(#filter4_d)">
<mask id="path-6-inside-2" fill="white">
<path fill-rule="evenodd" clip-rule="evenodd" d="M211.487 96.3461C222.639 92.95 230.685 75.4624 228.351 57.3765C226.324 41.6673 211.659 33.2803 205.455 47.1957C205.318 47.5001 205.079 48.0363 205.038 48.1726C205.005 48.1469 204.973 48.1215 204.94 48.0962C199.187 41.6092 192.569 45.5178 188.87 53.2461C179.667 43.6467 168.487 59.9606 170.526 75.7648C172.86 93.8507 184.641 105.301 195.793 101.904C198.76 101.001 201.507 99.1001 203.897 96.4559C206.381 97.123 208.95 97.1186 211.487 96.3461ZM205.045 48.1782C205.177 47.839 205.314 47.5116 205.455 47.1957C205.512 47.0684 205.551 46.9816 205.551 46.9816L205.046 48.1787C205.046 48.1785 205.046 48.1783 205.045 48.1782Z"/>
</mask>
<path fill-rule="evenodd" clip-rule="evenodd" d="M211.487 96.3461C222.639 92.95 230.685 75.4624 228.351 57.3765C226.324 41.6673 211.659 33.2803 205.455 47.1957C205.318 47.5001 205.079 48.0363 205.038 48.1726C205.005 48.1469 204.973 48.1215 204.94 48.0962C199.187 41.6092 192.569 45.5178 188.87 53.2461C179.667 43.6467 168.487 59.9606 170.526 75.7648C172.86 93.8507 184.641 105.301 195.793 101.904C198.76 101.001 201.507 99.1001 203.897 96.4559C206.381 97.123 208.95 97.1186 211.487 96.3461ZM205.045 48.1782C205.177 47.839 205.314 47.5116 205.455 47.1957C205.512 47.0684 205.551 46.9816 205.551 46.9816L205.046 48.1787C205.046 48.1785 205.046 48.1783 205.045 48.1782Z" fill="#4966FF"/>
<path d="M228.351 57.3765L226.368 57.6325L228.351 57.3765ZM211.487 96.3461L212.069 98.2594H212.069L211.487 96.3461ZM205.038 48.1726L203.805 49.7469L206.111 51.5541L206.954 48.7476L205.038 48.1726ZM204.94 48.0962L203.444 49.4232L203.569 49.5652L203.72 49.681L204.94 48.0962ZM188.87 53.2461L187.426 54.6302L189.426 56.7161L190.674 54.1097L188.87 53.2461ZM170.526 75.7648L168.543 76.0207L170.526 75.7648ZM195.793 101.904L195.21 99.9912L195.21 99.9912L195.793 101.904ZM203.897 96.4559L204.416 94.5243L203.234 94.2068L202.414 95.1147L203.897 96.4559ZM205.045 48.1782L203.181 47.4532L202.643 48.8365L203.811 49.7522L205.045 48.1782ZM205.551 46.9816L207.394 47.7596L203.732 46.1513L205.551 46.9816ZM205.046 48.1787L203.812 49.7527L205.871 51.3665L206.888 48.9567L205.046 48.1787ZM226.368 57.6325C227.489 66.3214 226.11 74.8463 223.147 81.5626C220.159 88.3336 215.709 92.9696 210.904 94.4329L212.069 98.2594C218.417 96.3265 223.566 90.5207 226.806 83.1774C230.07 75.7794 231.548 66.5176 230.335 57.1205L226.368 57.6325ZM207.281 48.0101C208.687 44.8576 210.447 43.2379 212.117 42.5599C213.771 41.8885 215.648 42.0132 217.583 42.9698C221.534 44.923 225.417 50.2645 226.368 57.6325L230.335 57.1205C229.258 48.7793 224.795 42.0727 219.356 39.384C216.596 38.0196 213.516 37.6748 210.612 38.8536C207.725 40.0258 205.325 42.576 203.628 46.3812L207.281 48.0101ZM203.631 46.3745C203.561 46.5299 203.462 46.7504 203.375 46.9528C203.314 47.0937 203.185 47.39 203.123 47.5975L206.954 48.7476C206.938 48.7982 206.927 48.8266 206.933 48.8115C206.935 48.8046 206.942 48.7882 206.953 48.7604C206.976 48.7049 207.007 48.6302 207.046 48.5416C207.122 48.3657 207.211 48.1658 207.278 48.0168L203.631 46.3745ZM203.72 49.681C203.748 49.7028 203.776 49.7247 203.805 49.7469L206.272 46.5982C206.234 46.5691 206.197 46.5402 206.16 46.5114L203.72 49.681ZM190.674 54.1097C192.416 50.4701 194.698 48.0676 196.876 47.1978C197.923 46.7801 198.95 46.7082 199.972 47.0004C201.013 47.2977 202.195 48.0158 203.444 49.4232L206.436 46.7692C204.808 44.9331 203.006 43.7071 201.072 43.1544C199.12 42.5964 197.183 42.7683 195.393 43.483C191.9 44.8778 189.023 48.2937 187.066 52.3825L190.674 54.1097ZM172.51 75.5088C171.552 68.0853 173.727 60.5922 177.074 56.1896C178.749 53.9861 180.554 52.7624 182.197 52.4592C183.716 52.1789 185.491 52.6125 187.426 54.6302L190.313 51.862C187.646 49.08 184.573 47.9531 181.471 48.5257C178.493 49.0754 175.905 51.1181 173.89 53.7687C169.856 59.0742 167.461 67.6401 168.543 76.0207L172.51 75.5088ZM195.21 99.9912C190.529 101.417 185.536 99.8073 181.277 95.4865C177.009 91.1558 173.632 84.2046 172.51 75.5088L168.543 76.0207C169.754 85.4108 173.435 93.2275 178.428 98.2943C183.431 103.371 189.904 105.788 196.376 103.818L195.21 99.9912ZM202.414 95.1147C200.209 97.5541 197.757 99.2159 195.21 99.9912L196.376 103.818C199.763 102.786 202.806 100.646 205.381 97.7971L202.414 95.1147ZM210.904 94.4329C208.74 95.092 206.552 95.0982 204.416 94.5243L203.379 98.3874C206.209 99.1478 209.16 99.1453 212.069 98.2594L210.904 94.4329ZM206.909 48.9032C207.03 48.5932 207.154 48.2956 207.281 48.0101L203.628 46.3812C203.473 46.7276 203.325 47.0849 203.181 47.4532L206.909 48.9032ZM205.551 46.9816C203.732 46.1513 203.732 46.1513 203.732 46.1513C203.732 46.1513 203.732 46.1513 203.732 46.1513C203.732 46.1513 203.732 46.1514 203.732 46.1514C203.732 46.1514 203.732 46.1514 203.732 46.1515C203.732 46.1515 203.732 46.1516 203.732 46.1518C203.732 46.152 203.732 46.1523 203.731 46.1527C203.731 46.1535 203.73 46.1547 203.73 46.1561C203.728 46.1591 203.727 46.1632 203.724 46.1686C203.719 46.1794 203.712 46.1949 203.703 46.2144C203.686 46.2535 203.661 46.3088 203.631 46.3745L207.278 48.0168C207.306 47.9552 207.329 47.9035 207.346 47.8673C207.354 47.8493 207.36 47.8351 207.365 47.8256C207.367 47.8209 207.369 47.8173 207.37 47.815C207.37 47.8138 207.37 47.813 207.371 47.8125C207.371 47.8122 207.371 47.812 207.371 47.8119C207.371 47.8119 207.371 47.8119 207.371 47.8118C207.371 47.8118 207.371 47.8118 207.371 47.8119C207.371 47.8119 207.371 47.8119 207.371 47.8119C207.371 47.8119 207.371 47.8119 207.371 47.8119C207.371 47.8119 207.371 47.8119 205.551 46.9816ZM206.888 48.9567L207.394 47.7596L203.709 46.2035L203.204 47.4006L206.888 48.9567ZM203.811 49.7522C203.814 49.7544 203.817 49.7562 203.818 49.7573C203.819 49.7579 203.819 49.7583 203.82 49.7586C203.82 49.7588 203.82 49.7589 203.82 49.759C203.82 49.759 203.82 49.7591 203.82 49.7591C203.821 49.7593 203.82 49.7585 203.818 49.7576C203.817 49.7566 203.815 49.7549 203.812 49.7527L206.28 46.6047C206.277 46.6024 206.275 46.6006 206.273 46.5995C206.273 46.599 206.272 46.5985 206.272 46.5982C206.271 46.5981 206.271 46.598 206.271 46.5979C206.271 46.5978 206.271 46.5978 206.271 46.5978C206.271 46.5976 206.272 46.5984 206.273 46.5993C206.274 46.6003 206.276 46.602 206.279 46.6041L203.811 49.7522Z" fill="white" mask="url(#path-6-inside-2)"/>
</g>
</g>
<defs>
<filter id="filter0_f" x="302" y="106" width="57" height="52" filterUnits="userSpaceOnUse" color-interpolation-filters="sRGB">
<feFlood flood-opacity="0" result="BackgroundImageFix"/>
<feBlend mode="normal" in="SourceGraphic" in2="BackgroundImageFix" result="shape"/>
<feGaussianBlur stdDeviation="12.5" result="effect1_foregroundBlur"/>
</filter>
<filter id="filter1_d" x="127.989" y="121.885" width="112.479" height="19.2707" filterUnits="userSpaceOnUse" color-interpolation-filters="sRGB">
<feFlood flood-opacity="0" result="BackgroundImageFix"/>
<feColorMatrix in="SourceAlpha" type="matrix" values="0 0 0 0 0 0 0 0 0 0 0 0 0 0 0 0 0 0 127 0" result="hardAlpha"/>
<feOffset dy="4"/>
<feGaussianBlur stdDeviation="2"/>
<feComposite in2="hardAlpha" operator="out"/>
<feColorMatrix type="matrix" values="0 0 0 0 1 0 0 0 0 1 0 0 0 0 1 0 0 0 1 0"/>
<feBlend mode="normal" in2="BackgroundImageFix" result="effect1_dropShadow"/>
<feBlend mode="normal" in="SourceGraphic" in2="effect1_dropShadow" result="shape"/>
</filter>
<filter id="filter2_d" x="133" y="21" width="99.7559" height="89.5001" filterUnits="userSpaceOnUse" color-interpolation-filters="sRGB">
<feFlood flood-opacity="0" result="BackgroundImageFix"/>
<feColorMatrix in="SourceAlpha" type="matrix" values="0 0 0 0 0 0 0 0 0 0 0 0 0 0 0 0 0 0 127 0" result="hardAlpha"/>
<feOffset dy="4"/>
<feGaussianBlur stdDeviation="2"/>
<feComposite in2="hardAlpha" operator="out"/>
<feColorMatrix type="matrix" values="0 0 0 0 0 0 0 0 0 0 0 0 0 0 0 0 0 0 0.1 0"/>
<feBlend mode="normal" in2="BackgroundImageFix" result="effect1_dropShadow"/>
<feBlend mode="normal" in="SourceGraphic" in2="effect1_dropShadow" result="shape"/>
</filter>
<filter id="filter3_d" x="133" y="21" width="63.6355" height="71.2991" filterUnits="userSpaceOnUse" color-interpolation-filters="sRGB">
<feFlood flood-opacity="0" result="BackgroundImageFix"/>
<feColorMatrix in="SourceAlpha" type="matrix" values="0 0 0 0 0 0 0 0 0 0 0 0 0 0 0 0 0 0 127 0" result="hardAlpha"/>
<feOffset dy="4"/>
<feGaussianBlur stdDeviation="2"/>
<feComposite in2="hardAlpha" operator="out"/>
<feColorMatrix type="matrix" values="0 0 0 0 0.318194 0 0 0 0 0.489975 0 0 0 0 0.966667 0 0 0 1 0"/>
<feBlend mode="normal" in2="BackgroundImageFix" result="effect1_dropShadow"/>
<feBlend mode="normal" in="SourceGraphic" in2="effect1_dropShadow" result="shape"/>
</filter>
<filter id="filter4_d" x="166.283" y="40.1375" width="66.4732" height="70.3625" filterUnits="userSpaceOnUse" color-interpolation-filters="sRGB">
<feFlood flood-opacity="0" result="BackgroundImageFix"/>
<feColorMatrix in="SourceAlpha" type="matrix" values="0 0 0 0 0 0 0 0 0 0 0 0 0 0 0 0 0 0 127 0" result="hardAlpha"/>
<feOffset dy="4"/>
<feGaussianBlur stdDeviation="2"/>
<feComposite in2="hardAlpha" operator="out"/>
<feColorMatrix type="matrix" values="0 0 0 0 0.318194 0 0 0 0 0.489975 0 0 0 0 0.966667 0 0 0 1 0"/>
<feBlend mode="normal" in2="BackgroundImageFix" result="effect1_dropShadow"/>
<feBlend mode="normal" in="SourceGraphic" in2="effect1_dropShadow" result="shape"/>
</filter>
<linearGradient id="paint0_linear" x1="328.116" y1="132.02" x2="342.391" y2="134.901" gradientUnits="userSpaceOnUse">
<stop stop-color="#C4C4C4"/>
<stop offset="0.103285" stop-color="#C4C4C4" stop-opacity="0.525"/>
<stop offset="0.357513" stop-color="#C4C4C4" stop-opacity="0"/>
</linearGradient>
</defs>
</svg>
