<svg width="163" height="145" viewBox="0 0 163 145" fill="none" xmlns="http://www.w3.org/2000/svg">
<g filter="url(#filter0_d)">
<g filter="url(#filter1_d)">
<mask id="path-1-inside-1" fill="white">
<path fill-rule="evenodd" clip-rule="evenodd" d="M96.854 62.8405C101.61 35.0554 80.496 6 48.8189 0.552969C28.8154 -2.88673 13.0034 10.2089 12.5217 26.2837L5.23744 68.7192L5.31845 68.7331C0.111987 84.1412 10.6737 102.049 30.8516 105.519C62.5287 110.966 92.098 90.6255 96.854 62.8405Z"/>
</mask>
<path fill-rule="evenodd" clip-rule="evenodd" d="M96.854 62.8405C101.61 35.0554 80.496 6 48.8189 0.552969C28.8154 -2.88673 13.0034 10.2089 12.5217 26.2837L5.23744 68.7192L5.31845 68.7331C0.111987 84.1412 10.6737 102.049 30.8516 105.519C62.5287 110.966 92.098 90.6255 96.854 62.8405Z" fill="white"/>
<path d="M48.8189 0.552969L49.6663 -4.37471L48.8189 0.552969ZM96.854 62.8405L91.9257 61.9969L96.854 62.8405ZM12.5217 26.2837L17.4496 27.1296L17.5089 26.784L17.5194 26.4335L12.5217 26.2837ZM5.23744 68.7192L0.309517 67.8733L-0.536581 72.8024L4.39272 73.6473L5.23744 68.7192ZM5.31845 68.7331L10.0553 70.3337L11.9276 64.793L6.16318 63.805L5.31845 68.7331ZM30.8516 105.519L31.6989 100.591H31.6989L30.8516 105.519ZM47.9716 5.48065C77.2353 10.5127 96.1653 37.2291 91.9257 61.9969L101.782 63.6841C107.055 32.8818 83.7567 1.48731 49.6663 -4.37471L47.9716 5.48065ZM17.5194 26.4335C17.8967 13.8443 30.505 2.47719 47.9716 5.48065L49.6663 -4.37471C27.1258 -8.25065 8.11009 6.57351 7.5239 26.1339L17.5194 26.4335ZM10.1654 69.5651L17.4496 27.1296L7.59373 25.4378L0.309517 67.8733L10.1654 69.5651ZM6.16318 63.805L6.08217 63.7911L4.39272 73.6473L4.47373 73.6612L6.16318 63.805ZM31.6989 100.591C14.0728 97.5601 5.97979 82.3949 10.0553 70.3337L0.581571 67.1325C-5.75582 85.8875 7.27448 106.538 30.0043 110.446L31.6989 100.591ZM91.9257 61.9969C87.6867 86.761 60.9604 105.623 31.6989 100.591L30.0043 110.446C64.0969 116.309 96.5092 94.49 101.782 63.6841L91.9257 61.9969Z" fill="#658DFC" fill-opacity="0.2" mask="url(#path-1-inside-1)"/>
</g>
<g filter="url(#filter2_d)">
<mask id="path-3-inside-2" fill="white">
<path fill-rule="evenodd" clip-rule="evenodd" d="M129.211 126.655C147.958 120.947 161.483 91.5503 157.56 61.1482C154.152 34.7414 129.501 20.643 119.071 44.0342C118.841 44.5459 118.44 45.4477 118.371 45.6766C118.316 45.6336 118.261 45.5909 118.206 45.5485C108.535 34.6435 97.4115 41.2138 91.192 54.2052C75.7218 38.0687 56.9287 65.492 60.357 92.0585C64.2803 122.461 84.0829 141.708 102.83 135.999C107.817 134.48 112.435 131.285 116.454 126.84C120.628 127.961 124.947 127.954 129.211 126.655ZM118.383 45.686C118.605 45.1159 118.834 44.5654 119.071 44.0342C119.167 43.8203 119.234 43.6746 119.234 43.6746L118.384 45.6869C118.384 45.6866 118.383 45.6863 118.383 45.686Z"/>
</mask>
<path fill-rule="evenodd" clip-rule="evenodd" d="M129.211 126.655C147.958 120.947 161.483 91.5503 157.56 61.1482C154.152 34.7414 129.501 20.643 119.071 44.0342C118.841 44.5459 118.44 45.4477 118.371 45.6766C118.316 45.6336 118.261 45.5909 118.206 45.5485C108.535 34.6435 97.4115 41.2138 91.192 54.2052C75.7218 38.0687 56.9287 65.492 60.357 92.0585C64.2803 122.461 84.0829 141.708 102.83 135.999C107.817 134.48 112.435 131.285 116.454 126.84C120.628 127.961 124.947 127.954 129.211 126.655ZM118.383 45.686C118.605 45.1159 118.834 44.5654 119.071 44.0342C119.167 43.8203 119.234 43.6746 119.234 43.6746L118.384 45.6869C118.384 45.6866 118.383 45.6863 118.383 45.686Z" fill="#4966FF" fill-opacity="0.2" shape-rendering="crispEdges"/>
<path d="M157.56 61.1482L155.576 61.4042L157.56 61.1482ZM129.211 126.655L129.794 128.569L129.211 126.655ZM118.371 45.6766L117.138 47.2509L119.444 49.0584L120.287 46.2515L118.371 45.6766ZM118.206 45.5485L116.71 46.8755L116.836 47.0174L116.986 47.1332L118.206 45.5485ZM91.192 54.2052L89.7483 55.5892L91.7482 57.6752L92.996 55.0688L91.192 54.2052ZM60.357 92.0585L58.3735 92.3145L60.357 92.0585ZM102.83 135.999L102.247 134.086H102.247L102.83 135.999ZM116.454 126.84L116.972 124.908L115.791 124.591L114.97 125.499L116.454 126.84ZM118.383 45.686L116.519 44.9611L115.982 46.3431L117.148 47.259L118.383 45.686ZM119.234 43.6746L121.076 44.4526L117.415 42.8442L119.234 43.6746ZM118.384 45.6869L117.149 47.2598L119.208 48.877L120.227 46.465L118.384 45.6869ZM155.576 61.4042C157.492 76.2511 155.141 90.8323 150.057 102.354C144.949 113.931 137.231 122.123 128.628 124.742L129.794 128.569C139.938 125.479 148.356 116.118 153.717 103.969C159.101 91.7654 161.551 76.4474 159.544 60.8923L155.576 61.4042ZM120.898 44.8486C123.36 39.3272 126.536 36.2877 129.758 34.9798C132.964 33.6784 136.529 33.963 140.062 35.7099C147.211 39.2437 153.935 48.6874 155.576 61.4042L159.544 60.8923C157.777 47.2022 150.472 36.3933 141.835 32.1241C137.476 29.9694 132.71 29.4648 128.254 31.2735C123.814 33.0756 119.997 37.0456 117.245 43.2197L120.898 44.8486ZM117.248 43.213C117.131 43.4721 116.968 43.8358 116.825 44.1671C116.708 44.4367 116.532 44.8478 116.455 45.1018L120.287 46.2515C120.272 46.299 120.275 46.2839 120.329 46.1505C120.372 46.0445 120.43 45.9089 120.496 45.7559C120.628 45.4511 120.781 45.108 120.895 44.8553L117.248 43.213ZM116.986 47.1332C117.036 47.1721 117.087 47.2114 117.138 47.2509L119.605 44.1023C119.545 44.0558 119.486 44.0096 119.426 43.9637L116.986 47.1332ZM92.996 55.0688C95.9982 48.7977 100.037 44.414 104.146 42.7731C106.158 41.9699 108.195 41.815 110.23 42.3966C112.283 42.9835 114.482 44.3635 116.71 46.8755L119.702 44.2215C117.095 41.2809 114.276 39.3929 111.329 38.5506C108.365 37.7032 105.419 37.9581 102.663 39.0583C97.2384 41.2242 92.6053 46.6213 89.3881 53.3415L92.996 55.0688ZM62.3406 91.8026C60.6882 78.9979 64.4194 66.0368 70.2797 58.3287C73.2115 54.4724 76.5123 52.1366 79.7285 51.543C82.8204 50.9723 86.2471 51.9372 89.7483 55.5892L92.6357 52.8211C88.4018 48.4048 83.6781 46.7465 79.0024 47.6095C74.451 48.4495 70.3672 51.6044 67.0955 55.9078C60.5487 64.5188 56.5976 78.5527 58.3735 92.3145L62.3406 91.8026ZM102.247 134.086C93.7688 136.668 84.871 133.687 77.459 126.166C70.0373 118.636 64.2574 106.656 62.3406 91.8026L58.3735 92.3145C60.3799 107.863 66.463 120.708 74.6101 128.974C82.767 137.251 93.1441 141.039 103.413 137.912L102.247 134.086ZM114.97 125.499C111.137 129.739 106.814 132.695 102.247 134.086L103.413 137.912C108.821 136.265 113.734 132.831 117.937 128.181L114.97 125.499ZM128.628 124.742C124.736 125.927 120.799 125.937 116.972 124.908L115.935 128.771C120.456 129.986 125.157 129.981 129.794 128.569L128.628 124.742ZM120.247 46.411C120.457 45.87 120.675 45.3493 120.898 44.8486L117.245 43.2197C116.994 43.7814 116.752 44.3618 116.519 44.9611L120.247 46.411ZM119.234 43.6746C117.415 42.8442 117.414 42.8442 117.414 42.8442C117.414 42.8442 117.414 42.8442 117.414 42.8443C117.414 42.8443 117.414 42.8443 117.414 42.8443C117.414 42.8443 117.414 42.8444 117.414 42.8444C117.414 42.8445 117.414 42.8447 117.414 42.8449C117.414 42.8452 117.414 42.8457 117.414 42.8463C117.413 42.8476 117.412 42.8494 117.411 42.8518C117.409 42.8565 117.406 42.8633 117.402 42.8721C117.394 42.8898 117.382 42.9154 117.367 42.9477C117.338 43.0123 117.297 43.104 117.248 43.213L120.895 44.8554C120.942 44.7505 120.982 44.6624 121.01 44.6006C121.024 44.5698 121.035 44.5456 121.042 44.5292C121.046 44.5211 121.049 44.5148 121.051 44.5107C121.052 44.5087 121.052 44.5072 121.053 44.5062C121.053 44.5057 121.053 44.5053 121.053 44.5051C121.053 44.505 121.053 44.505 121.053 44.5049C121.053 44.5049 121.053 44.5049 121.053 44.5049C121.053 44.5049 121.053 44.5049 121.053 44.5049C121.053 44.5049 121.053 44.5049 121.053 44.5049C121.053 44.5049 121.053 44.5049 119.234 43.6746ZM120.227 46.465L121.076 44.4526L117.392 42.8965L116.542 44.9089L120.227 46.465ZM117.148 47.259C117.149 47.26 117.15 47.2609 117.151 47.2614C117.152 47.262 117.152 47.2624 117.152 47.2624C117.153 47.2628 117.151 47.2615 117.149 47.2598L119.619 44.114C119.618 44.113 119.617 44.1121 119.616 44.1115C119.616 44.111 119.615 44.1106 119.615 44.1106C119.615 44.1102 119.616 44.1115 119.618 44.1131L117.148 47.259Z" fill="white" mask="url(#path-3-inside-2)"/>
</g>
</g>
<defs>
<filter id="filter0_d" x="0" y="0" width="162.24" height="145" filterUnits="userSpaceOnUse" color-interpolation-filters="sRGB">
<feFlood flood-opacity="0" result="BackgroundImageFix"/>
<feColorMatrix in="SourceAlpha" type="matrix" values="0 0 0 0 0 0 0 0 0 0 0 0 0 0 0 0 0 0 127 0" result="hardAlpha"/>
<feOffset dy="4"/>
<feGaussianBlur stdDeviation="2"/>
<feComposite in2="hardAlpha" operator="out"/>
<feColorMatrix type="matrix" values="0 0 0 0 0 0 0 0 0 0 0 0 0 0 0 0 0 0 0.1 0"/>
<feBlend mode="normal" in2="BackgroundImageFix" result="effect1_dropShadow"/>
<feBlend mode="normal" in="SourceGraphic" in2="effect1_dropShadow" result="shape"/>
</filter>
<filter id="filter1_d" x="0" y="0" width="101.522" height="114.405" filterUnits="userSpaceOnUse" color-interpolation-filters="sRGB">
<feFlood flood-opacity="0" result="BackgroundImageFix"/>
<feColorMatrix in="SourceAlpha" type="matrix" values="0 0 0 0 0 0 0 0 0 0 0 0 0 0 0 0 0 0 127 0" result="hardAlpha"/>
<feOffset dy="4"/>
<feGaussianBlur stdDeviation="2"/>
<feComposite in2="hardAlpha" operator="out"/>
<feColorMatrix type="matrix" values="0 0 0 0 0.318194 0 0 0 0 0.489975 0 0 0 0 0.966667 0 0 0 1 0"/>
<feBlend mode="normal" in2="BackgroundImageFix" result="effect1_dropShadow"/>
<feBlend mode="normal" in="SourceGraphic" in2="effect1_dropShadow" result="shape"/>
</filter>
<filter id="filter2_d" x="55.9478" y="32.1698" width="106.292" height="112.83" filterUnits="userSpaceOnUse" color-interpolation-filters="sRGB">
<feFlood flood-opacity="0" result="BackgroundImageFix"/>
<feColorMatrix in="SourceAlpha" type="matrix" values="0 0 0 0 0 0 0 0 0 0 0 0 0 0 0 0 0 0 127 0" result="hardAlpha"/>
<feOffset dy="4"/>
<feGaussianBlur stdDeviation="2"/>
<feComposite in2="hardAlpha" operator="out"/>
<feColorMatrix type="matrix" values="0 0 0 0 0.318194 0 0 0 0 0.489975 0 0 0 0 0.966667 0 0 0 1 0"/>
<feBlend mode="normal" in2="BackgroundImageFix" result="effect1_dropShadow"/>
<feBlend mode="normal" in="SourceGraphic" in2="effect1_dropShadow" result="shape"/>
</filter>
</defs>
</svg>
