<svg width="370" height="360" viewBox="0 0 200 185" fill="none" xmlns="http://www.w3.org/2000/svg">
<path d="M-2.29895 78.322L97.6304 78.322C107.531 78.322 115.586 85.9747 115.586 95.3807L150.718 99.0891L197.56 95.3807C197.56 70.0226 187.165 46.1824 168.291 28.2511C149.417 10.3206 124.322 0.445521 97.6304 0.445522L-2.29895 0.445526L-2.29895 11.5707L1.60454 17.1334L-2.29895 22.696L-2.29895 33.8212L1.60454 39.3838L-2.29895 44.9464L-2.29895 56.0716L1.60454 61.6342L-2.29895 67.1968L-2.29895 78.322Z" fill="#E8E8E8"/>
<path d="M-4.76636 27.2375L-4.76636 12.6237L63.0869 12.6237L63.0869 27.2375L-4.76636 27.2375Z" fill="white"/>
<path d="M-2.87726 56.7632L-2.87726 42.456L90.2282 42.456L90.2282 56.7632L-2.87726 56.7632Z" fill="white"/>
<path d="M98.0851 110.089L-1.8158 110.089L-1.8158 120.79L2.08658 126.14L-1.8158 131.49L-1.8158 142.19L2.08658 147.54L-1.8158 152.891L-1.8158 163.591L2.08658 168.941L-1.8158 174.291L-1.8158 184.992L98.0851 184.992C124.77 184.992 149.857 175.494 168.726 158.248C187.594 141.001 197.986 118.072 197.986 93.6819L116.036 93.6819C116.036 102.729 107.983 110.089 98.0851 110.089Z" fill="#E8E8E8"/>
<path d="M107.5 14.5152L73.8047 14.5152L73.8047 28.8224L107.5 28.8224C140.748 28.8224 167.797 57.9181 167.797 93.6818L174.447 98.4509L181.098 93.6818C181.098 50.0291 148.082 14.5152 107.5 14.5152Z" fill="white"/>
<path d="M107.5 43.1297L100.407 43.1297L100.407 57.4369L107.5 57.4369C126.08 57.4369 141.196 73.6961 141.196 93.6819L147.846 98.4509L154.496 93.6818C154.496 65.8071 133.414 43.1297 107.5 43.1297Z" fill="white"/>
<path d="M107.5 158.541L-6 158.541L-6 172.848L107.5 172.848C148.082 172.848 181.098 137.335 181.098 93.6817L167.797 93.6817C167.797 129.446 140.748 158.541 107.5 158.541Z" fill="white"/>
<path d="M107.5 129.927L-6 129.927L-6 144.234L107.5 144.234C133.413 144.234 154.496 121.557 154.496 93.6819L141.195 93.6819C141.195 113.668 126.079 129.927 107.5 129.927Z" fill="white"/>
</svg>
