<svg width="130" height="108" viewBox="0 0 130 108" fill="none" xmlns="http://www.w3.org/2000/svg">
<g filter="url(#filter0)">
<mask id="path-1-inside-1" fill="white">
<path fill-rule="evenodd" clip-rule="evenodd" d="M71.335 45.5701C74.784 25.4212 59.4727 4.35103 36.5014 0.400998C21.996 -2.09328 10.5299 7.40245 10.1797 19.0588L4.89717 49.8331L4.9561 49.8432C1.18053 61.0167 8.83954 74.0029 23.472 76.519C46.4433 80.4691 67.8861 65.719 71.335 45.5701Z"/>
</mask>
<path fill-rule="evenodd" clip-rule="evenodd" d="M71.335 45.5701C74.784 25.4212 59.4727 4.35103 36.5014 0.400998C21.996 -2.09328 10.5299 7.40245 10.1797 19.0588L4.89717 49.8331L4.9561 49.8432C1.18053 61.0167 8.83954 74.0029 23.472 76.519C46.4433 80.4691 67.8861 65.719 71.335 45.5701Z" fill="white"/>
<path d="M36.5014 0.400998L36.6708 -0.584538L36.5014 0.400998ZM71.335 45.5701L70.3494 45.4013L71.335 45.5701ZM10.1797 19.0588L11.1653 19.228L11.1771 19.1589L11.1792 19.0888L10.1797 19.0588ZM4.89717 49.8331L3.91158 49.6639L3.74237 50.6497L4.72817 50.8187L4.89717 49.8331ZM4.9561 49.8432L5.90348 50.1634L6.2779 49.0553L5.1251 48.8576L4.9561 49.8432ZM23.472 76.519L23.3025 77.5046V77.5046L23.472 76.519ZM36.3319 1.38653C58.8205 5.25356 73.695 25.8559 70.3494 45.4013L72.3207 45.7388C75.8729 24.9864 60.1248 3.44849 36.6708 -0.584538L36.3319 1.38653ZM11.1792 19.0888C11.5085 8.12956 22.3339 -1.02049 36.3319 1.38653L36.6708 -0.584538C21.6581 -3.16606 9.55129 6.67534 9.18015 19.0287L11.1792 19.0888ZM5.88275 50.0023L11.1653 19.228L9.19411 18.8896L3.91158 49.6639L5.88275 50.0023ZM5.1251 48.8576L5.06617 48.8475L4.72817 50.8187L4.78711 50.8288L5.1251 48.8576ZM23.6415 75.5335C9.51937 73.1051 2.35409 60.6675 5.90348 50.1634L4.00873 49.5231C0.00696325 61.366 8.1597 74.9007 23.3025 77.5046L23.6415 75.5335ZM70.3494 45.4013C67.0038 64.9461 46.1296 79.4005 23.6415 75.5335L23.3025 77.5046C46.7569 81.5377 68.7683 66.4919 72.3207 45.7388L70.3494 45.4013Z" fill="#658DFC" mask="url(#path-1-inside-1)"/>
</g>
<g filter="url(#filter1)">
<mask id="path-3-inside-2" fill="white">
<path fill-rule="evenodd" clip-rule="evenodd" d="M104.047 91.8468C117.642 87.7069 127.45 66.3896 124.605 44.3429C122.134 25.1932 104.257 14.9694 96.6937 31.9331C96.5266 32.3042 96.2363 32.9571 96.1864 33.1232C96.1464 33.0919 96.1064 33.0608 96.0662 33.0299C89.0534 25.1227 80.9871 29.8872 76.477 39.3079C65.2585 27.6061 51.6303 47.4928 54.1164 66.758C56.9614 88.8047 71.3217 102.762 84.9165 98.6223C88.5332 97.5209 91.882 95.2038 94.7958 91.9805C97.8228 92.7938 100.955 92.7885 104.047 91.8468ZM96.1951 33.1301C96.3558 32.7169 96.5221 32.318 96.6937 31.9331C96.7638 31.7776 96.8122 31.6715 96.8122 31.6715L96.196 33.1307C96.1957 33.1305 96.1954 33.1303 96.1951 33.1301Z"/>
</mask>
<path fill-rule="evenodd" clip-rule="evenodd" d="M104.047 91.8468C117.642 87.7069 127.45 66.3896 124.605 44.3429C122.134 25.1932 104.257 14.9694 96.6937 31.9331C96.5266 32.3042 96.2363 32.9571 96.1864 33.1232C96.1464 33.0919 96.1064 33.0608 96.0662 33.0299C89.0534 25.1227 80.9871 29.8872 76.477 39.3079C65.2585 27.6061 51.6303 47.4928 54.1164 66.758C56.9614 88.8047 71.3217 102.762 84.9165 98.6223C88.5332 97.5209 91.882 95.2038 94.7958 91.9805C97.8228 92.7938 100.955 92.7885 104.047 91.8468ZM96.1951 33.1301C96.3558 32.7169 96.5221 32.318 96.6937 31.9331C96.7638 31.7776 96.8122 31.6715 96.8122 31.6715L96.196 33.1307C96.1957 33.1305 96.1954 33.1303 96.1951 33.1301Z" fill="#4966FF"/>
<path d="M124.605 44.3429L126.589 44.087L124.605 44.3429ZM104.047 91.8468L103.465 89.9335L103.465 89.9336L104.047 91.8468ZM96.1864 33.1232L94.9529 34.6975L97.259 36.5044L98.1019 33.6986L96.1864 33.1232ZM96.0662 33.0299L94.5699 34.357L94.6959 34.4989L94.8462 34.6147L96.0662 33.0299ZM76.477 39.3079L75.0333 40.692L77.0331 42.7779L78.281 40.1715L76.477 39.3079ZM54.1164 66.758L52.1328 67.014L54.1164 66.758ZM84.9165 98.6223L84.3338 96.709H84.3338L84.9165 98.6223ZM94.7958 91.9805L95.3147 90.049L94.1328 89.7315L93.3122 90.6393L94.7958 91.9805ZM96.1951 33.1301L94.3312 32.4051L93.7934 33.7876L94.9605 34.7035L96.1951 33.1301ZM96.8122 31.6715L98.6546 32.4496L94.9927 30.8412L96.8122 31.6715ZM96.196 33.1307L94.9613 34.7041L97.0203 36.3198L98.0384 33.9088L96.196 33.1307ZM122.622 44.5989C123.998 55.2681 122.307 65.7408 118.661 74.0026C114.992 82.319 109.491 88.0984 103.465 89.9335L104.63 93.7601C112.198 91.4553 118.399 84.5061 122.321 75.6173C126.267 66.6738 128.057 55.4644 126.589 44.087L122.622 44.5989ZM98.5204 32.7475C100.266 28.8329 102.481 26.7565 104.65 25.8758C106.804 25.0016 109.223 25.1777 111.673 26.3884C116.652 28.8499 121.449 35.5106 122.622 44.5989L126.589 44.087C125.29 34.0255 119.913 25.9995 113.445 22.8026C110.171 21.1841 106.549 20.788 103.146 22.1695C99.7589 23.5445 96.9033 26.5514 94.8671 31.1187L98.5204 32.7475ZM94.8701 31.1119C94.7851 31.3007 94.6661 31.567 94.5607 31.8107C94.4818 31.9929 94.3377 32.3256 94.271 32.5478L98.1019 33.6986C98.0878 33.7453 98.0783 33.7684 98.0863 33.7472C98.0913 33.7341 98.1006 33.7104 98.1152 33.6745C98.1444 33.6029 98.1843 33.5086 98.2316 33.3994C98.3256 33.1823 98.4353 32.9366 98.5174 32.7542L94.8701 31.1119ZM94.8462 34.6147C94.8818 34.6421 94.9174 34.6697 94.9529 34.6975L97.4199 31.5489C97.3755 31.5141 97.3309 31.4795 97.2863 31.4451L94.8462 34.6147ZM78.281 40.1715C80.4285 35.6858 83.2753 32.6462 86.0747 31.5284C87.4314 30.9867 88.7836 30.888 90.1316 31.2732C91.4976 31.6636 93.0068 32.5945 94.5699 34.357L97.5625 31.7028C95.6193 29.5117 93.4904 28.073 91.2307 27.4272C88.9529 26.7763 86.6918 26.9749 84.5915 27.8136C80.477 29.4564 77.0356 33.5093 74.6731 38.4443L78.281 40.1715ZM56.0999 66.5021C54.9186 57.348 57.5942 48.0964 61.7496 42.6308C63.8289 39.8958 66.115 38.3145 68.2637 37.9179C70.2883 37.5442 72.595 38.1486 75.0333 40.692L77.9207 37.9238C74.7498 34.6162 71.146 33.3184 67.5377 33.9843C64.0537 34.6274 60.9846 37.0278 58.5653 40.2099C53.7235 46.5784 50.828 56.9028 52.1328 67.014L56.0999 66.5021ZM84.3338 96.709C78.4315 98.5064 72.1823 96.4561 66.9097 91.1062C61.6274 85.7466 57.4777 77.1783 56.0999 66.5021L52.1328 67.014C53.6001 78.3845 58.053 87.8183 64.0608 93.914C70.0783 100.02 77.8067 102.878 85.4991 100.536L84.3338 96.709ZM93.3122 90.6393C90.5834 93.6578 87.5298 95.7358 84.3338 96.709L85.4991 100.536C89.5367 99.306 93.1805 96.7497 96.2794 93.3217L93.3122 90.6393ZM103.465 89.9336C100.744 90.7619 97.9946 90.769 95.3147 90.049L94.2768 93.912C97.6511 94.8186 101.165 94.8151 104.63 93.7601L103.465 89.9336ZM98.0591 33.8551C98.2085 33.471 98.3624 33.1019 98.5204 32.7475L94.8671 31.1187C94.6819 31.5341 94.5032 31.9628 94.3312 32.4051L98.0591 33.8551ZM96.8122 31.6715C94.9927 30.8412 94.9927 30.8412 94.9927 30.8412C94.9927 30.8412 94.9927 30.8412 94.9927 30.8412C94.9927 30.8412 94.9927 30.8412 94.9927 30.8412C94.9926 30.8413 94.9926 30.8413 94.9926 30.8414C94.9926 30.8414 94.9925 30.8416 94.9925 30.8417C94.9923 30.842 94.9922 30.8424 94.9919 30.8428C94.9915 30.8438 94.9909 30.8452 94.9901 30.8469C94.9885 30.8504 94.9862 30.8555 94.9832 30.862C94.9773 30.875 94.9687 30.8938 94.958 30.9175C94.9365 30.9649 94.906 31.0321 94.8701 31.1119L98.5174 32.7542C98.5515 32.6785 98.5803 32.615 98.6005 32.5705C98.6106 32.5482 98.6185 32.5308 98.6238 32.5191C98.6265 32.5132 98.6285 32.5088 98.6298 32.5059C98.6305 32.5044 98.631 32.5034 98.6313 32.5027C98.6314 32.5024 98.6315 32.5021 98.6316 32.502C98.6316 32.5019 98.6317 32.5019 98.6317 32.5019C98.6317 32.5019 98.6317 32.5019 98.6317 32.5019C98.6317 32.5019 98.6317 32.5019 98.6317 32.5019C98.6317 32.5019 98.6317 32.5019 98.6317 32.5019C98.6316 32.5019 98.6316 32.5019 96.8122 31.6715ZM98.0384 33.9088L98.6546 32.4496L94.9697 30.8935L94.3535 32.3527L98.0384 33.9088ZM94.9605 34.7035C94.9634 34.7057 94.9657 34.7076 94.9672 34.7087C94.9679 34.7093 94.9685 34.7098 94.9689 34.7101C94.9691 34.7102 94.9693 34.7103 94.9694 34.7104C94.9695 34.7105 94.9696 34.7106 94.9696 34.7106C94.9698 34.7108 94.9688 34.71 94.9676 34.709C94.9663 34.708 94.9641 34.7063 94.9613 34.7041L97.4306 31.5573C97.4277 31.555 97.4254 31.5532 97.4239 31.5521C97.4232 31.5515 97.4226 31.551 97.4222 31.5507C97.422 31.5506 97.4218 31.5504 97.4217 31.5504C97.4216 31.5503 97.4216 31.5502 97.4216 31.5502C97.4213 31.55 97.4223 31.5508 97.4235 31.5517C97.4248 31.5528 97.4271 31.5545 97.4298 31.5567L94.9605 34.7035Z" fill="white" mask="url(#path-3-inside-2)"/>
</g>
<defs>
<filter id="filter0" x="0" y="0" width="75.8196" height="85.1614" filterUnits="userSpaceOnUse" color-interpolation-filters="sRGB">
<feFlood flood-opacity="0" result="BackgroundImageFix"/>
<feColorMatrix in="SourceAlpha" type="matrix" values="0 0 0 0 0 0 0 0 0 0 0 0 0 0 0 0 0 0 127 0" result="hardAlpha"/>
<feOffset dy="4"/>
<feGaussianBlur stdDeviation="2"/>
<feComposite in2="hardAlpha" operator="out"/>
<feColorMatrix type="matrix" values="0 0 0 0 0.318194 0 0 0 0 0.489975 0 0 0 0 0.966667 0 0 0 1 0"/>
<feBlend mode="normal" in2="BackgroundImageFix" result="effect1_dropShadow"/>
<feBlend mode="normal" in="SourceGraphic" in2="effect1_dropShadow" result="shape"/>
</filter>
<filter id="filter1" x="49.8196" y="23.3286" width="79.2787" height="84.0197" filterUnits="userSpaceOnUse" color-interpolation-filters="sRGB">
<feFlood flood-opacity="0" result="BackgroundImageFix"/>
<feColorMatrix in="SourceAlpha" type="matrix" values="0 0 0 0 0 0 0 0 0 0 0 0 0 0 0 0 0 0 127 0" result="hardAlpha"/>
<feOffset dy="4"/>
<feGaussianBlur stdDeviation="2"/>
<feComposite in2="hardAlpha" operator="out"/>
<feColorMatrix type="matrix" values="0 0 0 0 0.318194 0 0 0 0 0.489975 0 0 0 0 0.966667 0 0 0 1 0"/>
<feBlend mode="normal" in2="BackgroundImageFix" result="effect1_dropShadow"/>
<feBlend mode="normal" in="SourceGraphic" in2="effect1_dropShadow" result="shape"/>
</filter>
</defs>
</svg>
