<svg width="368" height="75" viewBox="0 0 368 75" fill="none" xmlns="http://www.w3.org/2000/svg">
<g filter="url(#filter0_d)">
<rect x="4.5" y="18.5" width="358.019" height="37" fill="url(#paint0_linear)" stroke="#FAFAFA"/>
<path d="M9.8855 35.1H364V37.95H9.8855V35.1Z" fill="#F4F4F4"/>
</g>
<rect x="68.3242" y="50" width="119.676" height="24" rx="4" fill="#3C68FA" stroke="#E3E3E3"/>
<rect x="65" y="46" width="119.676" height="24" rx="4" fill="white" stroke="#CACACA" stroke-width="0.5"/>
<path d="M71.5 61L71.4972 60.3757L73.4586 58.395C73.6961 58.1483 73.8775 57.9494 74.0028 57.7983C74.128 57.6473 74.2238 57.5 74.2901 57.3564C74.3582 57.2109 74.3923 57.058 74.3923 56.8978C74.3923 56.7155 74.3462 56.5552 74.2541 56.4171C74.1621 56.279 74.0359 56.1731 73.8757 56.0994C73.7173 56.0239 73.5396 55.9862 73.3425 55.9862C73.1363 55.9862 72.9549 56.0276 72.7983 56.1105C72.6436 56.1915 72.5239 56.3076 72.4392 56.4586C72.3564 56.6096 72.3149 56.7855 72.3149 56.9862H71.4972C71.4972 56.6473 71.5764 56.3481 71.7348 56.0884C71.895 55.8269 72.116 55.6243 72.3978 55.4807C72.6814 55.337 73.0018 55.2652 73.3591 55.2652C73.7164 55.2652 74.035 55.3352 74.3149 55.4751C74.5948 55.6151 74.8131 55.8076 74.9696 56.0525C75.128 56.2956 75.2081 56.5691 75.2099 56.8729C75.2081 57.0902 75.1667 57.2983 75.0856 57.4972C75.0046 57.6961 74.8665 57.918 74.6713 58.163C74.4779 58.4061 74.2026 58.7026 73.8453 59.0525L72.6961 60.221V60.2624H75.3011V61H71.5ZM76.8131 61.0525C76.7118 61.0525 76.6178 61.0276 76.5313 60.9779C76.4466 60.9282 76.3794 60.861 76.3296 60.7762C76.2799 60.6915 76.256 60.5994 76.2578 60.5C76.256 60.4006 76.2799 60.3085 76.3296 60.2238C76.3794 60.139 76.4466 60.0718 76.5313 60.0221C76.6178 59.9724 76.7118 59.9475 76.8131 59.9475C76.9107 59.9475 77.0018 59.9724 77.0865 60.0221C77.1713 60.0718 77.2385 60.139 77.2882 60.2238C77.3398 60.3085 77.3655 60.4006 77.3655 60.5C77.3655 60.5994 77.3398 60.6915 77.2882 60.7762C77.2385 60.861 77.1713 60.9282 77.0865 60.9779C77.0018 61.0276 76.9107 61.0525 76.8131 61.0525ZM85.2487 56.8149H84.4531V58.337H83.7431V54.7983H84.4531V56.2127H85.2487V54.6685H85.9503V58.3867H85.2487V56.8149ZM83.1851 58.2099C82.8536 58.1013 82.5663 57.9401 82.3232 57.7265C82.082 57.5129 81.8951 57.2652 81.7625 56.9834C81.6317 57.2891 81.4448 57.5608 81.2017 57.7983C80.9604 58.0341 80.6741 58.2145 80.3426 58.3398L80 57.779C80.2837 57.6703 80.5304 57.523 80.7404 57.337C80.9522 57.1492 81.1142 56.9411 81.2266 56.7127C81.3407 56.4825 81.3988 56.2523 81.4006 56.0221V56.0028H80.1796V55.4116H81.4006V54.6989H82.1023V55.4116H83.3011V56.0028H82.1023V56.0221C82.1023 56.2449 82.1584 56.4641 82.2708 56.6796C82.3849 56.8932 82.5488 57.0866 82.7625 57.2597C82.9761 57.4328 83.2256 57.5681 83.5111 57.6657L83.1851 58.2099ZM82.0056 60.3674V61.011H86.2183V61.5746H81.2708V59.8177H85.2238V59.2459H81.2569V58.6796H85.9503V60.3674H82.0056ZM91.9638 54.6685H92.6959V59.8204H91.9638V54.6685ZM91.2732 58.6243C90.752 58.7164 90.2382 58.7781 89.7318 58.8094C89.2272 58.8407 88.6001 58.8573 87.8506 58.8591H87.2677V56.6768H89.7345V55.7514H87.2539V55.1519H90.4694V57.2431H87.9915V58.2486C88.6857 58.2468 89.2705 58.2302 89.7456 58.1989C90.2207 58.1676 90.7032 58.1077 91.1931 58.0193L91.2732 58.6243ZM88.8119 59.4116V60.9116H92.8948V61.5193H88.066V59.4116H88.8119ZM98.8668 61.663V54.663H99.6127V61.663H98.8668ZM96.3889 56.7293C96.3889 57.1142 96.4672 57.4972 96.6237 57.8785C96.7821 58.2578 97.0013 58.5967 97.2812 58.895C97.563 59.1915 97.8807 59.4153 98.2342 59.5663L97.8282 60.1519C97.4193 59.9715 97.0575 59.6998 96.7425 59.337C96.4295 58.9724 96.19 58.5552 96.0243 58.0856C95.9156 58.4171 95.772 58.7293 95.5934 59.0221C95.4166 59.3131 95.2112 59.5709 94.9773 59.7956C94.7453 60.0184 94.4958 60.1952 94.2287 60.326L93.795 59.7403C94.1394 59.5801 94.4516 59.3389 94.7315 59.0166C95.0133 58.6943 95.2342 58.3315 95.3945 57.9282C95.5547 57.5249 95.6357 57.1252 95.6376 56.7293V55.9807H94.0409V55.3674H97.9856V55.9807H96.3889V56.7293ZM108.182 54.663V56.3785H109.195V57.0055H108.182V58.8453H107.438V54.663H108.182ZM105.516 55.0994H106.251V58.3481H102.949V55.0994H103.682V56.1105H105.516V55.0994ZM103.682 57.7569H105.516V56.6906H103.682V57.7569ZM105.919 59.0249C106.4 59.0249 106.814 59.0764 107.162 59.1796C107.512 59.2827 107.78 59.4328 107.966 59.6298C108.152 59.8269 108.245 60.0626 108.245 60.337C108.245 60.6133 108.152 60.8499 107.966 61.047C107.78 61.2459 107.512 61.3978 107.162 61.5028C106.814 61.6077 106.4 61.6611 105.919 61.663C105.435 61.6611 105.017 61.6077 104.665 61.5028C104.313 61.3978 104.043 61.2459 103.853 61.047C103.665 60.8499 103.571 60.6133 103.571 60.337C103.571 60.0626 103.665 59.8269 103.853 59.6298C104.043 59.4328 104.313 59.2827 104.665 59.1796C105.017 59.0764 105.435 59.0249 105.919 59.0249ZM105.919 61.0718C106.254 61.0718 106.542 61.0433 106.781 60.9862C107.02 60.9273 107.203 60.8435 107.328 60.7348C107.455 60.6243 107.519 60.4917 107.519 60.337C107.519 60.1823 107.455 60.0506 107.328 59.942C107.203 59.8333 107.02 59.7505 106.781 59.6934C106.542 59.6363 106.254 59.6068 105.919 59.605C105.582 59.6068 105.293 59.6363 105.052 59.6934C104.812 59.7505 104.629 59.8333 104.502 59.942C104.375 60.0506 104.312 60.1823 104.314 60.337C104.312 60.4917 104.375 60.6243 104.502 60.7348C104.629 60.8435 104.813 60.9273 105.054 60.9862C105.296 61.0433 105.584 61.0718 105.919 61.0718ZM114.69 56.3425V54.663H115.43V58.4862H114.69V56.9613H113.159V58.2486H109.927V55.0249H110.67V56.0442H112.424V55.0249H113.159V56.3425H114.69ZM110.67 57.6492H112.424V56.6243H110.67V57.6492ZM111.604 59.5994H114.69V58.8149H115.424V61.5663H110.866V58.8149H111.604V59.5994ZM111.604 60.9613H114.69V60.1796H111.604V60.9613ZM116.894 60.453H117.767L117.14 62.6105H116.477L116.894 60.453ZM125.573 54.6685H126.316V59.7569H125.573V54.6685ZM122.515 58.616C122.165 58.616 121.849 58.5424 121.565 58.395C121.281 58.2477 121.058 58.0424 120.894 57.779C120.732 57.5138 120.651 57.2127 120.651 56.8757C120.651 56.5442 120.732 56.2468 120.894 55.9834C121.058 55.7201 121.281 55.5147 121.565 55.3674C121.85 55.2182 122.167 55.1436 122.515 55.1436C122.863 55.1436 123.179 55.2182 123.463 55.3674C123.746 55.5147 123.969 55.7201 124.131 55.9834C124.293 56.2468 124.374 56.5442 124.374 56.8757C124.374 57.2127 124.293 57.5138 124.131 57.779C123.969 58.0424 123.746 58.2477 123.463 58.395C123.179 58.5424 122.863 58.616 122.515 58.616ZM121.377 56.8757C121.375 57.0912 121.423 57.2818 121.521 57.4475C121.62 57.6133 121.756 57.7422 121.93 57.8343C122.103 57.9245 122.298 57.9696 122.515 57.9696C122.729 57.9696 122.921 57.9245 123.093 57.8343C123.266 57.7422 123.401 57.6133 123.499 57.4475C123.598 57.2818 123.648 57.0912 123.648 56.8757C123.648 56.6639 123.598 56.4761 123.499 56.3122C123.401 56.1464 123.266 56.0184 123.093 55.9282C122.919 55.8361 122.727 55.7901 122.515 55.7901C122.3 55.7901 122.105 55.8361 121.93 55.9282C121.756 56.0184 121.62 56.1464 121.521 56.3122C121.423 56.4761 121.375 56.6639 121.377 56.8757ZM122.482 59.2403V60.9116H126.521V61.5193H121.736V59.2403H122.482ZM127.758 57.0083C128.178 56.9622 128.562 56.8729 128.91 56.7403C129.258 56.6077 129.538 56.4438 129.75 56.2486C129.963 56.0534 130.085 55.8435 130.114 55.6188H128.007V55.0083H133.23V55.6188H131.112C131.139 55.8416 131.259 56.0506 131.471 56.2459C131.682 56.4411 131.963 56.6059 132.313 56.7403C132.663 56.8729 133.052 56.9622 133.479 57.0083L133.211 57.5912C132.806 57.5451 132.429 57.4595 132.081 57.3343C131.733 57.209 131.432 57.0497 131.178 56.8564C130.924 56.663 130.734 56.4438 130.609 56.1989C130.484 56.4438 130.295 56.663 130.043 56.8564C129.79 57.0497 129.49 57.209 129.142 57.3343C128.796 57.4595 128.42 57.5451 128.015 57.5912L127.758 57.0083ZM127.424 58.5635V57.9586H133.805V58.5635H127.424ZM130.606 59.1022C131.107 59.1022 131.538 59.1529 131.899 59.2541C132.262 59.3536 132.54 59.4991 132.733 59.6906C132.926 59.8821 133.024 60.1123 133.026 60.3812C133.024 60.6501 132.926 60.8794 132.733 61.0691C132.542 61.2606 132.264 61.4052 131.902 61.5028C131.541 61.6022 131.109 61.6519 130.606 61.6519C130.101 61.6519 129.667 61.6022 129.302 61.5028C128.939 61.4052 128.661 61.2606 128.468 61.0691C128.275 60.8794 128.178 60.6501 128.178 60.3812C128.178 60.1123 128.275 59.8821 128.468 59.6906C128.661 59.4991 128.939 59.3536 129.302 59.2541C129.667 59.1529 130.101 59.1022 130.606 59.1022ZM130.606 61.0663C131.138 61.0663 131.551 61.0074 131.844 60.8895C132.136 60.7716 132.284 60.6022 132.286 60.3812C132.284 60.1584 132.136 59.9871 131.844 59.8674C131.551 59.7477 131.138 59.686 130.606 59.6823C130.068 59.686 129.654 59.7477 129.363 59.8674C129.074 59.9871 128.93 60.1584 128.932 60.3812C128.93 60.6022 129.074 60.7716 129.363 60.8895C129.654 61.0074 130.068 61.0663 130.606 61.0663ZM139.838 54.663V56.3785H140.852V57.0055H139.838V58.8453H139.095V54.663H139.838ZM137.172 55.0994H137.907V58.3481H134.606V55.0994H135.338V56.1105H137.172V55.0994ZM135.338 57.7569H137.172V56.6906H135.338V57.7569ZM137.575 59.0249C138.056 59.0249 138.47 59.0764 138.818 59.1796C139.168 59.2827 139.436 59.4328 139.622 59.6298C139.808 59.8269 139.901 60.0626 139.901 60.337C139.901 60.6133 139.808 60.8499 139.622 61.047C139.436 61.2459 139.168 61.3978 138.818 61.5028C138.47 61.6077 138.056 61.6611 137.575 61.663C137.091 61.6611 136.673 61.6077 136.321 61.5028C135.969 61.3978 135.699 61.2459 135.509 61.047C135.321 60.8499 135.227 60.6133 135.227 60.337C135.227 60.0626 135.321 59.8269 135.509 59.6298C135.699 59.4328 135.969 59.2827 136.321 59.1796C136.673 59.0764 137.091 59.0249 137.575 59.0249ZM137.575 61.0718C137.911 61.0718 138.198 61.0433 138.437 60.9862C138.677 60.9273 138.859 60.8435 138.984 60.7348C139.111 60.6243 139.175 60.4917 139.175 60.337C139.175 60.1823 139.111 60.0506 138.984 59.942C138.859 59.8333 138.677 59.7505 138.437 59.6934C138.198 59.6363 137.911 59.6068 137.575 59.605C137.238 59.6068 136.949 59.6363 136.708 59.6934C136.469 59.7505 136.285 59.8333 136.158 59.942C136.031 60.0506 135.969 60.1823 135.97 60.337C135.969 60.4917 136.031 60.6243 136.158 60.7348C136.285 60.8435 136.469 60.9273 136.711 60.9862C136.952 61.0433 137.24 61.0718 137.575 61.0718ZM146.315 58.8646V54.663H147.058V58.8646H146.315ZM143.423 56.8867C143.265 57.2827 143.035 57.6289 142.733 57.9254C142.432 58.2201 142.077 58.4411 141.666 58.5884L141.285 58.0055C141.642 57.8803 141.953 57.698 142.216 57.4586C142.481 57.2192 142.684 56.9448 142.824 56.6354C142.965 56.326 143.036 56.0037 143.036 55.6685V54.9972H143.796V55.6685C143.794 55.9908 143.863 56.2993 144.003 56.5939C144.143 56.8886 144.344 57.1483 144.605 57.3729C144.867 57.5976 145.175 57.768 145.528 57.884L145.155 58.4696C144.754 58.3278 144.404 58.1206 144.105 57.8481C143.809 57.5755 143.582 57.2551 143.423 56.8867ZM146.315 59.8011H142.313V59.1989H147.058V61.663H146.315V59.8011ZM152.641 55.2624H154.288V55.8177H150.249V55.2624H151.901V54.6077H152.641V55.2624ZM155.625 56.7459H156.622V57.3619H155.625V59.3812H154.884V54.6685H155.625V56.7459ZM154.544 58.9199C154.08 59.0009 153.595 59.0617 153.089 59.1022C152.582 59.1427 152.104 59.1685 151.655 59.1796C151.207 59.1906 150.707 59.1971 150.152 59.1989L150.069 58.605C150.778 58.605 151.389 58.5985 151.901 58.5856V58.1105C151.634 58.081 151.402 58.0221 151.205 57.9337C151.009 57.8435 150.859 57.7265 150.754 57.5829C150.649 57.4374 150.598 57.2716 150.6 57.0856C150.598 56.8738 150.665 56.6906 150.801 56.5359C150.939 56.3794 151.134 56.2597 151.384 56.1768C151.637 56.0921 151.929 56.0506 152.263 56.0525C152.596 56.0506 152.888 56.0912 153.138 56.174C153.389 56.2569 153.583 56.3766 153.721 56.5331C153.859 56.6897 153.929 56.8738 153.931 57.0856C153.929 57.2698 153.876 57.4346 153.771 57.5801C153.666 57.7238 153.517 57.8407 153.323 57.9309C153.132 58.0212 152.904 58.081 152.641 58.1105V58.558C153.354 58.5212 153.969 58.4659 154.486 58.3923L154.544 58.9199ZM151.307 57.0856C151.307 57.1943 151.345 57.2901 151.42 57.3729C151.497 57.454 151.608 57.5166 151.752 57.5608C151.897 57.605 152.067 57.6262 152.263 57.6243C152.458 57.6262 152.627 57.605 152.771 57.5608C152.916 57.5166 153.028 57.454 153.105 57.3729C153.183 57.2901 153.221 57.1943 153.221 57.0856C153.221 56.918 153.136 56.7882 152.964 56.6961C152.795 56.6022 152.561 56.5571 152.263 56.5608C151.964 56.5571 151.73 56.6022 151.558 56.6961C151.389 56.7882 151.305 56.918 151.307 57.0856ZM154.884 60.2928H150.942V59.7072H155.625V61.663H154.884V60.2928ZM162.097 54.6685H162.84V59.7569H162.097V54.6685ZM159.039 58.616C158.689 58.616 158.372 58.5424 158.088 58.395C157.805 58.2477 157.581 58.0424 157.417 57.779C157.255 57.5138 157.174 57.2127 157.174 56.8757C157.174 56.5442 157.255 56.2468 157.417 55.9834C157.581 55.7201 157.805 55.5147 158.088 55.3674C158.374 55.2182 158.691 55.1436 159.039 55.1436C159.387 55.1436 159.703 55.2182 159.986 55.3674C160.27 55.5147 160.493 55.7201 160.655 55.9834C160.817 56.2468 160.898 56.5442 160.898 56.8757C160.898 57.2127 160.817 57.5138 160.655 57.779C160.493 58.0424 160.27 58.2477 159.986 58.395C159.703 58.5424 159.387 58.616 159.039 58.616ZM157.901 56.8757C157.899 57.0912 157.947 57.2818 158.044 57.4475C158.144 57.6133 158.28 57.7422 158.453 57.8343C158.626 57.9245 158.821 57.9696 159.039 57.9696C159.252 57.9696 159.445 57.9245 159.616 57.8343C159.789 57.7422 159.924 57.6133 160.022 57.4475C160.122 57.2818 160.171 57.0912 160.171 56.8757C160.171 56.6639 160.122 56.4761 160.022 56.3122C159.924 56.1464 159.789 56.0184 159.616 55.9282C159.443 55.8361 159.25 55.7901 159.039 55.7901C158.823 55.7901 158.628 55.8361 158.453 55.9282C158.28 56.0184 158.144 56.1464 158.044 56.3122C157.947 56.4761 157.899 56.6639 157.901 56.8757ZM159.005 59.2403V60.9116H163.044V61.5193H158.26V59.2403H159.005ZM169.4 57.5H170.522V58.116H169.4V61.663H168.665V54.663H169.4V57.5ZM165.635 54.7541H166.375V55.7597H168.055V56.3646H163.908V55.7597H165.635V54.7541ZM166.011 56.8812C166.34 56.8812 166.637 56.9512 166.9 57.0912C167.165 57.2293 167.373 57.4227 167.522 57.6713C167.673 57.918 167.748 58.198 167.748 58.511C167.748 58.826 167.673 59.1068 167.522 59.3536C167.373 59.6004 167.165 59.7928 166.9 59.9309C166.637 60.0691 166.34 60.1381 166.011 60.1381C165.677 60.1381 165.378 60.0691 165.113 59.9309C164.848 59.7928 164.641 59.6004 164.491 59.3536C164.342 59.1068 164.268 58.826 164.268 58.511C164.268 58.1961 164.342 57.9153 164.491 57.6685C164.641 57.4217 164.848 57.2293 165.113 57.0912C165.378 56.9512 165.677 56.8812 166.011 56.8812ZM166.011 59.5193C166.206 59.5193 166.381 59.4779 166.536 59.395C166.692 59.3103 166.815 59.1915 166.903 59.0387C166.993 58.8858 167.039 58.7099 167.041 58.511C167.039 58.314 166.993 58.1381 166.903 57.9834C166.815 57.8287 166.692 57.709 166.536 57.6243C166.381 57.5378 166.206 57.4945 166.011 57.4945C165.812 57.4945 165.633 57.5378 165.475 57.6243C165.318 57.709 165.196 57.8287 165.107 57.9834C165.019 58.1381 164.976 58.314 164.978 58.511C164.976 58.7099 165.019 58.8858 165.107 59.0387C165.196 59.1915 165.318 59.3103 165.475 59.395C165.633 59.4779 165.812 59.5193 166.011 59.5193ZM175.933 61.663V54.663H176.679V61.663H175.933ZM174.599 55.4171C174.595 56.5018 174.335 57.4641 173.817 58.3039C173.301 59.1436 172.469 59.8379 171.32 60.3867L170.928 59.7873C171.845 59.3508 172.541 58.8195 173.016 58.1934C173.493 57.5654 173.768 56.837 173.842 56.0083H171.267V55.4171H174.599Z" fill="black"/>
<rect x="178.202" y="5" width="123.798" height="24" rx="4" fill="#3C68FA" stroke="#E3E3E3"/>
<rect x="175" y="1" width="123.798" height="24" rx="4" fill="white" stroke="#CACACA" stroke-width="0.5"/>
<path d="M184.506 16.0773C184.121 16.0773 183.775 16.012 183.47 15.8812C183.166 15.7505 182.925 15.5672 182.749 15.3315C182.574 15.0958 182.482 14.826 182.472 14.5221H183.343C183.352 14.6842 183.408 14.8269 183.511 14.9503C183.616 15.0737 183.754 15.1694 183.925 15.2376C184.097 15.3039 184.287 15.337 184.497 15.337C184.724 15.337 184.926 15.2983 185.105 15.221C185.285 15.1436 185.425 15.035 185.525 14.895C185.626 14.7551 185.677 14.5958 185.677 14.4171C185.679 14.2293 185.629 14.0626 185.528 13.9171C185.428 13.7716 185.282 13.6584 185.088 13.5773C184.897 13.4963 184.669 13.4558 184.403 13.4558H183.923V12.7541H184.403C184.617 12.7541 184.807 12.7173 184.972 12.6436C185.138 12.5681 185.267 12.4622 185.359 12.326C185.453 12.1897 185.5 12.0322 185.5 11.8536C185.5 11.6823 185.459 11.5313 185.378 11.4006C185.297 11.268 185.182 11.1657 185.033 11.0939C184.886 11.0221 184.714 10.9862 184.517 10.9862C184.325 10.9862 184.146 11.0203 183.981 11.0884C183.817 11.1547 183.684 11.2505 183.583 11.3757C183.482 11.5009 183.427 11.6464 183.42 11.8122H182.591C182.6 11.512 182.692 11.2449 182.865 11.011C183.038 10.7753 183.27 10.5921 183.561 10.4613C183.852 10.3306 184.173 10.2652 184.525 10.2652C184.884 10.2652 185.201 10.3352 185.475 10.4751C185.751 10.6133 185.963 10.8002 186.11 11.0359C186.26 11.2698 186.333 11.5276 186.331 11.8094C186.333 12.0193 186.293 12.2099 186.21 12.3812C186.129 12.5525 186.013 12.6961 185.862 12.8122C185.711 12.9263 185.534 13.0083 185.331 13.058V13.1022C185.584 13.1372 185.801 13.2155 185.983 13.337C186.168 13.4586 186.308 13.6142 186.403 13.8039C186.499 13.9936 186.546 14.2081 186.544 14.4475C186.546 14.7569 186.459 15.0359 186.282 15.2845C186.107 15.5313 185.864 15.7256 185.552 15.8674C185.241 16.0074 184.892 16.0773 184.506 16.0773ZM187.876 16.0525C187.774 16.0525 187.68 16.0276 187.594 15.9779C187.509 15.9282 187.442 15.861 187.392 15.7762C187.342 15.6915 187.318 15.5994 187.32 15.5C187.318 15.4006 187.342 15.3085 187.392 15.2238C187.442 15.139 187.509 15.0718 187.594 15.0221C187.68 14.9724 187.774 14.9475 187.876 14.9475C187.973 14.9475 188.064 14.9724 188.149 15.0221C188.234 15.0718 188.301 15.139 188.351 15.2238C188.402 15.3085 188.428 15.4006 188.428 15.5C188.428 15.5994 188.402 15.6915 188.351 15.7762C188.301 15.861 188.234 15.9282 188.149 15.9779C188.064 16.0276 187.973 16.0525 187.876 16.0525ZM194.836 12.058V11.4475H196.143V9.66298H196.883V13.8287H196.143V12.058H194.836ZM193.192 12.0718C193.038 12.4678 192.809 12.8149 192.507 13.1133C192.205 13.4116 191.848 13.6363 191.435 13.7873L191.051 13.1989C191.405 13.0737 191.714 12.8932 191.977 12.6575C192.242 12.4199 192.446 12.1492 192.587 11.8453C192.729 11.5414 192.8 11.2284 192.8 10.9061V10.7514H191.281V10.1464H195.06V10.7514H193.551V10.9006C193.551 11.1971 193.619 11.4843 193.753 11.7624C193.889 12.0405 194.085 12.2882 194.339 12.5055C194.595 12.7228 194.895 12.8895 195.239 13.0055L194.861 13.5967C194.474 13.4622 194.138 13.2624 193.853 12.9972C193.567 12.732 193.347 12.4236 193.192 12.0718ZM194.538 14.0249C195.026 14.0249 195.447 14.0773 195.8 14.1823C196.156 14.2855 196.428 14.4365 196.618 14.6354C196.809 14.8324 196.905 15.0691 196.905 15.3453C196.905 15.6197 196.809 15.8554 196.618 16.0525C196.428 16.2495 196.156 16.3996 195.8 16.5028C195.447 16.6077 195.026 16.6611 194.538 16.663C194.05 16.6611 193.628 16.6077 193.272 16.5028C192.917 16.3996 192.644 16.2495 192.455 16.0525C192.265 15.8554 192.171 15.6197 192.173 15.3453C192.171 15.0691 192.265 14.8324 192.455 14.6354C192.644 14.4365 192.917 14.2855 193.272 14.1823C193.628 14.0773 194.05 14.0249 194.538 14.0249ZM194.538 16.0801C194.877 16.082 195.168 16.0543 195.413 15.9972C195.658 15.9401 195.845 15.8564 195.974 15.7459C196.105 15.6335 196.17 15.5 196.17 15.3453C196.17 15.1888 196.105 15.0543 195.974 14.942C195.845 14.8297 195.658 14.7449 195.413 14.6878C195.168 14.6289 194.877 14.5994 194.538 14.5994C194.197 14.5994 193.904 14.6289 193.659 14.6878C193.414 14.7449 193.227 14.8297 193.098 14.942C192.97 15.0543 192.906 15.1888 192.908 15.3453C192.906 15.5 192.97 15.6335 193.098 15.7459C193.227 15.8564 193.414 15.9401 193.659 15.9972C193.904 16.0543 194.197 16.082 194.538 16.0801ZM203.25 12.5801V9.66298H203.957V16.663H203.25V13.1851H202.443V16.3343H201.745V9.82044H202.443V12.5801H203.25ZM199.322 9.87017H200.057V10.8232H201.419V11.4227H197.946V10.8232H199.322V9.87017ZM199.689 11.8425C199.98 11.8425 200.241 11.9116 200.471 12.0497C200.701 12.186 200.882 12.3766 201.013 12.6215C201.143 12.8665 201.21 13.1436 201.211 13.453C201.21 13.768 201.143 14.0488 201.013 14.2956C200.882 14.5424 200.701 14.7348 200.471 14.8729C200.241 15.011 199.98 15.0801 199.689 15.0801C199.398 15.0801 199.137 15.011 198.905 14.8729C198.675 14.7348 198.494 14.5424 198.363 14.2956C198.234 14.047 198.171 13.7661 198.173 13.453C198.171 13.1436 198.234 12.8665 198.363 12.6215C198.494 12.3766 198.675 12.186 198.905 12.0497C199.137 11.9116 199.398 11.8425 199.689 11.8425ZM199.689 14.442C199.855 14.4438 200.003 14.4033 200.134 14.3204C200.267 14.2376 200.37 14.1215 200.443 13.9724C200.517 13.8214 200.554 13.6483 200.554 13.453C200.554 13.2615 200.517 13.0912 200.443 12.942C200.37 12.791 200.267 12.6731 200.134 12.5884C200.003 12.5037 199.855 12.4613 199.689 12.4613C199.522 12.4613 199.373 12.5037 199.242 12.5884C199.111 12.6731 199.009 12.791 198.935 12.942C198.862 13.0912 198.825 13.2615 198.825 13.453C198.825 13.6483 198.862 13.8214 198.935 13.9724C199.009 14.1215 199.111 14.2376 199.242 14.3204C199.373 14.4033 199.522 14.4438 199.689 14.442ZM209.94 9.66851H210.683V14.779H209.94V9.66851ZM207.106 12.2873C206.948 12.6722 206.716 13.0092 206.41 13.2983C206.106 13.5856 205.748 13.802 205.335 13.9475L204.951 13.3591C205.309 13.2376 205.62 13.0626 205.885 12.8343C206.152 12.6059 206.358 12.3435 206.501 12.047C206.645 11.7505 206.718 11.442 206.719 11.1215V10.8204H205.145V10.221H209.009V10.8204H207.468V11.1215C207.468 11.4254 207.539 11.7173 207.681 11.9972C207.823 12.2753 208.025 12.5221 208.288 12.7376C208.554 12.9512 208.864 13.1133 209.219 13.2238L208.841 13.8066C208.441 13.6759 208.092 13.4788 207.794 13.2155C207.496 12.9503 207.266 12.6409 207.106 12.2873ZM206.849 14.2983V15.9116H210.888V16.5193H206.103V14.2983H206.849ZM218.816 16.663V9.66298H219.562V16.663H218.816ZM217.482 10.4171C217.478 11.5018 217.217 12.4641 216.7 13.3039C216.184 14.1436 215.352 14.8379 214.203 15.3867L213.81 14.7873C214.727 14.3508 215.424 13.8195 215.899 13.1934C216.376 12.5654 216.651 11.837 216.725 11.0083H214.15V10.4171H217.482ZM226.158 9.66298V11.732H227.172V12.3536H226.158V14.7514H225.407V9.66298H226.158ZM224.258 10.1961C224.258 10.8002 224.126 11.3508 223.863 11.8481C223.601 12.3435 223.223 12.7716 222.73 13.1326C222.238 13.4917 221.65 13.7744 220.965 13.9807L220.65 13.3895C221.195 13.2256 221.668 13.0157 222.07 12.7597C222.473 12.5037 222.792 12.2109 223.026 11.8812C223.261 11.5497 223.403 11.1934 223.451 10.8122H220.943V10.1961H224.258ZM221.713 14.2293H222.459V15.9116H226.448V16.5193H221.713V14.2293ZM231.127 12.326V13.0691H233.962V13.663H227.572V13.0691H230.404V12.326H228.368V9.98619H233.174V10.5718H229.103V11.732H233.216V12.326H231.127ZM230.754 14.1215C231.255 14.1215 231.686 14.1713 232.047 14.2707C232.41 14.3702 232.688 14.5147 232.882 14.7044C233.075 14.8941 233.173 15.1234 233.174 15.3923C233.173 15.6593 233.075 15.8877 232.882 16.0773C232.69 16.267 232.413 16.4116 232.05 16.511C231.689 16.6105 231.257 16.6611 230.754 16.663C230.25 16.6611 229.815 16.6105 229.451 16.511C229.088 16.4116 228.81 16.267 228.616 16.0773C228.423 15.8877 228.326 15.6593 228.326 15.3923C228.326 15.1234 228.423 14.8941 228.616 14.7044C228.81 14.5147 229.088 14.3702 229.451 14.2707C229.815 14.1713 230.25 14.1215 230.754 14.1215ZM230.754 16.0801C231.106 16.082 231.407 16.0562 231.658 16.0028C231.908 15.9512 232.1 15.8738 232.232 15.7707C232.365 15.6657 232.432 15.5396 232.434 15.3923C232.432 15.2449 232.365 15.1188 232.232 15.0138C232.1 14.9088 231.908 14.8297 231.658 14.7762C231.407 14.721 231.106 14.6934 230.754 14.6934C230.399 14.6934 230.096 14.721 229.846 14.7762C229.595 14.8297 229.405 14.9088 229.274 15.0138C229.143 15.1188 229.079 15.2449 229.08 15.3923C229.079 15.5414 229.143 15.6676 229.274 15.7707C229.405 15.8738 229.595 15.9512 229.846 16.0028C230.096 16.0562 230.399 16.082 230.754 16.0801ZM239.986 9.66022V11.7514H241V12.3702H239.986V14.8039H239.243V9.66022H239.986ZM238.318 11.884C238.316 12.2173 238.233 12.5166 238.069 12.7818C237.907 13.047 237.684 13.2541 237.401 13.4033C237.119 13.5525 236.804 13.6271 236.456 13.6271C236.106 13.6271 235.788 13.5525 235.503 13.4033C235.219 13.2541 234.995 13.047 234.832 12.7818C234.669 12.5166 234.589 12.2173 234.591 11.884C234.589 11.5488 234.669 11.2495 234.832 10.9862C234.995 10.721 235.219 10.5147 235.503 10.3674C235.788 10.2182 236.106 10.1436 236.456 10.1436C236.804 10.1436 237.119 10.2182 237.401 10.3674C237.684 10.5147 237.907 10.721 238.069 10.9862C238.233 11.2495 238.316 11.5488 238.318 11.884ZM235.318 11.884C235.316 12.0958 235.365 12.2855 235.464 12.453C235.565 12.6188 235.703 12.7477 235.876 12.8398C236.051 12.9319 236.244 12.9779 236.456 12.9779C236.669 12.9779 236.863 12.9319 237.036 12.8398C237.209 12.7477 237.345 12.6188 237.445 12.453C237.544 12.2855 237.595 12.0958 237.597 11.884C237.595 11.6703 237.544 11.4807 237.445 11.3149C237.345 11.1473 237.209 11.0184 237.036 10.9282C236.863 10.8361 236.669 10.7901 236.456 10.7901C236.242 10.7901 236.048 10.8361 235.873 10.9282C235.7 11.0203 235.564 11.1492 235.464 11.3149C235.365 11.4807 235.316 11.6703 235.318 11.884ZM235.55 14.268H236.287V15.9116H240.285V16.5193H235.55V14.268ZM248.616 11.8149H247.82V13.337H247.11V9.79834H247.82V11.2127H248.616V9.66851H249.318V13.3867H248.616V11.8149ZM246.552 13.2099C246.221 13.1013 245.934 12.9401 245.69 12.7265C245.449 12.5129 245.262 12.2652 245.13 11.9834C244.999 12.2891 244.812 12.5608 244.569 12.7983C244.328 13.0341 244.041 13.2145 243.71 13.3398L243.367 12.779C243.651 12.6703 243.898 12.523 244.108 12.337C244.319 12.1492 244.481 11.9411 244.594 11.7127C244.708 11.4825 244.766 11.2523 244.768 11.0221V11.0028H243.547V10.4116H244.768V9.69889H245.469V10.4116H246.668V11.0028H245.469V11.0221C245.469 11.2449 245.526 11.4641 245.638 11.6796C245.752 11.8932 245.916 12.0866 246.13 12.2597C246.343 12.4328 246.593 12.5681 246.878 12.6657L246.552 13.2099ZM245.373 15.3674V16.011H249.585V16.5746H244.638V14.8177H248.591V14.2459H244.624V13.6796H249.318V15.3674H245.373ZM255.331 9.66851H256.063V14.8204H255.331V9.66851ZM254.64 13.6243C254.119 13.7164 253.605 13.7781 253.099 13.8094C252.594 13.8407 251.967 13.8573 251.218 13.8591H250.635V11.6768H253.102V10.7514H250.621V10.1519H253.837V12.2431H251.359V13.2486C252.053 13.2468 252.638 13.2302 253.113 13.1989C253.588 13.1676 254.07 13.1077 254.56 13.0193L254.64 13.6243ZM252.179 14.4116V15.9116H256.262V16.5193H251.433V14.4116H252.179ZM262.234 16.663V9.66298H262.98V16.663H262.234ZM259.756 11.7293C259.756 12.1142 259.834 12.4972 259.991 12.8785C260.149 13.2578 260.368 13.5967 260.648 13.895C260.93 14.1915 261.248 14.4153 261.601 14.5663L261.195 15.1519C260.787 14.9715 260.425 14.6998 260.11 14.337C259.797 13.9724 259.557 13.5552 259.391 13.0856C259.283 13.4171 259.139 13.7293 258.961 14.0221C258.784 14.3131 258.578 14.5709 258.345 14.7956C258.112 15.0184 257.863 15.1952 257.596 15.326L257.162 14.7403C257.507 14.5801 257.819 14.3389 258.099 14.0166C258.38 13.6943 258.601 13.3315 258.762 12.9282C258.922 12.5249 259.003 12.1252 259.005 11.7293V10.9807H257.408V10.3674H261.353V10.9807H259.756V11.7293ZM271.112 9.66851H271.855V14.779H271.112V9.66851ZM268.278 12.2873C268.12 12.6722 267.888 13.0092 267.582 13.2983C267.278 13.5856 266.92 13.802 266.507 13.9475L266.123 13.3591C266.481 13.2376 266.792 13.0626 267.057 12.8343C267.324 12.6059 267.529 12.3435 267.673 12.047C267.817 11.7505 267.889 11.442 267.891 11.1215V10.8204H266.317V10.221H270.181V10.8204H268.64V11.1215C268.64 11.4254 268.711 11.7173 268.853 11.9972C268.994 12.2753 269.197 12.5221 269.46 12.7376C269.726 12.9512 270.036 13.1133 270.391 13.2238L270.013 13.8066C269.613 13.6759 269.264 13.4788 268.966 13.2155C268.668 12.9503 268.438 12.6409 268.278 12.2873ZM268.021 14.2983V15.9116H272.06V16.5193H267.275V14.2983H268.021ZM278.225 12.1243H277.413V13.837H276.72V9.79834H277.413V11.5138H278.225V9.66298H278.927V14.0801H278.225V12.1243ZM275.068 10.4641H276.463V11.0497H272.924V10.4641H274.333V9.71823H275.068V10.4641ZM276.214 12.5829C276.212 12.8204 276.147 13.0304 276.018 13.2127C275.891 13.3932 275.712 13.5331 275.482 13.6326C275.254 13.7302 274.992 13.779 274.698 13.779C274.407 13.779 274.147 13.7293 273.919 13.6298C273.692 13.5304 273.515 13.3904 273.388 13.2099C273.261 13.0295 273.198 12.8204 273.198 12.5829C273.198 12.3435 273.261 12.1326 273.388 11.9503C273.515 11.7661 273.692 11.6243 273.919 11.5249C274.147 11.4254 274.407 11.3757 274.698 11.3757C274.992 11.3757 275.254 11.4254 275.482 11.5249C275.712 11.6243 275.891 11.7652 276.018 11.9475C276.147 12.1298 276.212 12.3416 276.214 12.5829ZM273.858 12.5829C273.858 12.7136 273.893 12.8287 273.963 12.9282C274.035 13.0276 274.134 13.1041 274.261 13.1575C274.388 13.2109 274.534 13.2376 274.698 13.2376C274.863 13.2376 275.01 13.2109 275.137 13.1575C275.266 13.1041 275.365 13.0276 275.435 12.9282C275.507 12.8287 275.543 12.7136 275.543 12.5829C275.543 12.4503 275.507 12.3343 275.435 12.2348C275.365 12.1335 275.266 12.0562 275.137 12.0028C275.01 11.9475 274.863 11.9199 274.698 11.9199C274.534 11.9199 274.388 11.9475 274.261 12.0028C274.134 12.0562 274.035 12.1335 273.963 12.2348C273.893 12.3343 273.858 12.4503 273.858 12.5829ZM276.59 14.1823C277.083 14.1823 277.508 14.2311 277.863 14.3287C278.221 14.4245 278.493 14.5654 278.681 14.7514C278.871 14.9374 278.966 15.1611 278.966 15.4227C278.966 15.6805 278.871 15.9015 278.681 16.0856C278.491 16.2698 278.219 16.4098 277.863 16.5055C277.508 16.6031 277.083 16.6519 276.59 16.6519C276.096 16.6519 275.671 16.6031 275.314 16.5055C274.956 16.4098 274.683 16.2698 274.493 16.0856C274.305 15.9015 274.212 15.6805 274.214 15.4227C274.212 15.1611 274.305 14.9374 274.493 14.7514C274.683 14.5654 274.955 14.4245 275.311 14.3287C275.668 14.2311 276.094 14.1823 276.59 14.1823ZM276.59 16.0801C276.934 16.082 277.229 16.0571 277.474 16.0055C277.719 15.9558 277.905 15.8812 278.032 15.7818C278.161 15.6823 278.225 15.5626 278.225 15.4227C278.223 15.2035 278.081 15.0359 277.797 14.9199C277.515 14.8039 277.113 14.7477 276.59 14.7514C276.065 14.7477 275.66 14.8039 275.374 14.9199C275.091 15.0359 274.95 15.2035 274.952 15.4227C274.95 15.5626 275.013 15.6823 275.14 15.7818C275.269 15.8812 275.455 15.9558 275.7 16.0055C275.947 16.0571 276.244 16.082 276.59 16.0801ZM285.33 12.5H286.451V13.116H285.33V16.663H284.595V9.66298H285.33V12.5ZM281.565 9.75414H282.305V10.7597H283.985V11.3646H279.838V10.7597H281.565V9.75414ZM281.94 11.8812C282.27 11.8812 282.567 11.9512 282.83 12.0912C283.095 12.2293 283.302 12.4227 283.451 12.6713C283.602 12.918 283.678 13.198 283.678 13.511C283.678 13.826 283.602 14.1068 283.451 14.3536C283.302 14.6004 283.095 14.7928 282.83 14.9309C282.567 15.0691 282.27 15.1381 281.94 15.1381C281.607 15.1381 281.308 15.0691 281.043 14.9309C280.777 14.7928 280.57 14.6004 280.421 14.3536C280.272 14.1068 280.197 13.826 280.197 13.511C280.197 13.1961 280.272 12.9153 280.421 12.6685C280.57 12.4217 280.777 12.2293 281.043 12.0912C281.308 11.9512 281.607 11.8812 281.94 11.8812ZM281.94 14.5193C282.136 14.5193 282.311 14.4779 282.465 14.395C282.622 14.3103 282.744 14.1915 282.833 14.0387C282.923 13.8858 282.969 13.7099 282.971 13.511C282.969 13.314 282.923 13.1381 282.833 12.9834C282.744 12.8287 282.622 12.709 282.465 12.6243C282.311 12.5378 282.136 12.4945 281.94 12.4945C281.741 12.4945 281.563 12.5378 281.404 12.6243C281.248 12.709 281.125 12.8287 281.037 12.9834C280.949 13.1381 280.905 13.314 280.907 13.511C280.905 13.7099 280.949 13.8858 281.037 14.0387C281.125 14.1915 281.248 14.3103 281.404 14.395C281.563 14.4779 281.741 14.5193 281.94 14.5193ZM291.863 16.663V9.66298H292.609V16.663H291.863ZM290.528 10.4171C290.525 11.5018 290.264 12.4641 289.747 13.3039C289.231 14.1436 288.399 14.8379 287.249 15.3867L286.857 14.7873C287.774 14.3508 288.47 13.8195 288.946 13.1934C289.423 12.5654 289.698 11.837 289.772 11.0083H287.197V10.4171H290.528Z" fill="black"/>
<rect x="222.223" y="50" width="124.628" height="24" rx="4" fill="#3C68FA" stroke="#E3E3E3"/>
<rect x="219" y="46" width="124.628" height="24" rx="4" fill="white" stroke="#CACACA" stroke-width="0.5"/>
<path d="M226.165 59.1685H226.933V59.895H226.165V61H225.345V59.895H222.602V59.2017L225.099 55.3425H226.165V59.1685ZM225.289 56.3646L223.502 59.1243V59.1685H225.35V56.3646H225.289ZM228.146 61.0525C228.044 61.0525 227.95 61.0276 227.864 60.9779C227.779 60.9282 227.712 60.861 227.662 60.7762C227.612 60.6915 227.588 60.5994 227.59 60.5C227.588 60.4006 227.612 60.3085 227.662 60.2238C227.712 60.139 227.779 60.0718 227.864 60.0221C227.95 59.9724 228.044 59.9475 228.146 59.9475C228.243 59.9475 228.334 59.9724 228.419 60.0221C228.504 60.0718 228.571 60.139 228.621 60.2238C228.672 60.3085 228.698 60.4006 228.698 60.5C228.698 60.5994 228.672 60.6915 228.621 60.7762C228.571 60.861 228.504 60.9282 228.419 60.9779C228.334 61.0276 228.243 61.0525 228.146 61.0525ZM236.581 56.8149H235.786V58.337H235.076V54.7983H235.786V56.2127H236.581V54.6685H237.283V58.3867H236.581V56.8149ZM234.518 58.2099C234.186 58.1013 233.899 57.9401 233.656 57.7265C233.415 57.5129 233.228 57.2652 233.095 56.9834C232.964 57.2891 232.777 57.5608 232.534 57.7983C232.293 58.0341 232.007 58.2145 231.675 58.3398L231.333 57.779C231.616 57.6703 231.863 57.523 232.073 57.337C232.285 57.1492 232.447 56.9411 232.559 56.7127C232.673 56.4825 232.731 56.2523 232.733 56.0221V56.0028H231.512V55.4116H232.733V54.6989H233.435V55.4116H234.634V56.0028H233.435V56.0221C233.435 56.2449 233.491 56.4641 233.603 56.6796C233.717 56.8932 233.881 57.0866 234.095 57.2597C234.309 57.4328 234.558 57.5681 234.844 57.6657L234.518 58.2099ZM233.338 60.3674V61.011H237.551V61.5746H232.603V59.8177H236.556V59.2459H232.589V58.6796H237.283V60.3674H233.338ZM243.296 54.6685H244.028V59.8204H243.296V54.6685ZM242.606 58.6243C242.085 58.7164 241.571 58.7781 241.064 58.8094C240.56 58.8407 239.933 58.8573 239.183 58.8591H238.6V56.6768H241.067V55.7514H238.586V55.1519H241.802V57.2431H239.324V58.2486C240.018 58.2468 240.603 58.2302 241.078 58.1989C241.553 58.1676 242.036 58.1077 242.526 58.0193L242.606 58.6243ZM240.144 59.4116V60.9116H244.227V61.5193H239.399V59.4116H240.144ZM250.199 61.663V54.663H250.945V61.663H250.199ZM247.721 56.7293C247.721 57.1142 247.8 57.4972 247.956 57.8785C248.115 58.2578 248.334 58.5967 248.614 58.895C248.895 59.1915 249.213 59.4153 249.567 59.5663L249.161 60.1519C248.752 59.9715 248.39 59.6998 248.075 59.337C247.762 58.9724 247.523 58.5552 247.357 58.0856C247.248 58.4171 247.105 58.7293 246.926 59.0221C246.749 59.3131 246.544 59.5709 246.31 59.7956C246.078 60.0184 245.828 60.1952 245.561 60.326L245.128 59.7403C245.472 59.5801 245.784 59.3389 246.064 59.0166C246.346 58.6943 246.567 58.3315 246.727 57.9282C246.887 57.5249 246.968 57.1252 246.97 56.7293V55.9807H245.373V55.3674H249.318V55.9807H247.721V56.7293ZM259.52 54.6685V56.9834H260.517V57.6077H259.52V60.0221H258.779V54.6685H259.52ZM258.406 58.7293C257.753 58.8471 257.067 58.9254 256.351 58.9641C255.637 59.0009 254.881 59.0193 254.086 59.0193L254.003 58.4171C254.707 58.4171 255.3 58.4088 255.782 58.3923V57.7376C255.506 57.6989 255.263 57.6179 255.053 57.4945C254.843 57.3692 254.68 57.2109 254.564 57.0193C254.45 56.826 254.393 56.6105 254.395 56.3729C254.393 56.0985 254.466 55.8564 254.614 55.6464C254.761 55.4346 254.966 55.2707 255.23 55.1547C255.495 55.0368 255.797 54.9779 256.136 54.9779C256.474 54.9779 256.776 55.0368 257.039 55.1547C257.304 55.2707 257.511 55.4346 257.66 55.6464C257.81 55.8564 257.885 56.0985 257.887 56.3729C257.885 56.6068 257.827 56.8195 257.713 57.011C257.601 57.2026 257.441 57.361 257.235 57.4862C257.031 57.6096 256.794 57.6915 256.525 57.732V58.3591C257.212 58.3186 257.82 58.2597 258.348 58.1823L258.406 58.7293ZM255.086 56.3729C255.084 56.535 255.127 56.6786 255.216 56.8039C255.306 56.9273 255.43 57.0239 255.589 57.0939C255.749 57.1621 255.931 57.1971 256.136 57.1989C256.342 57.1971 256.524 57.1621 256.683 57.0939C256.841 57.0258 256.964 56.93 257.053 56.8066C257.141 56.6814 257.186 56.5368 257.188 56.3729C257.186 56.2072 257.141 56.0617 257.053 55.9365C256.964 55.8112 256.841 55.7145 256.683 55.6464C256.524 55.5783 256.342 55.5442 256.136 55.5442C255.931 55.5442 255.749 55.5783 255.589 55.6464C255.428 55.7145 255.304 55.8112 255.216 55.9365C255.127 56.0617 255.084 56.2072 255.086 56.3729ZM254.992 59.5525H255.738V60.9033H259.771V61.5138H254.992V59.5525ZM265.652 58.9669V60.2072H267.334V60.8232H260.928V60.2072H262.677V58.9669H261.707V56.7403H265.818V55.7652H261.693V55.1602H266.55V57.3453H262.445V58.3591H266.713V58.9669H265.652ZM264.923 58.9669H263.398V60.2072H264.923V58.9669ZM273.348 55.4392H275.817V56.0442H270.119V55.4392H272.613V54.6354H273.348V55.4392ZM272.98 58.7569C272.494 58.7569 272.076 58.7109 271.726 58.6188C271.378 58.5267 271.112 58.3932 270.928 58.2182C270.744 58.0433 270.652 57.8315 270.652 57.5829C270.652 57.3306 270.744 57.1169 270.928 56.942C271.112 56.7652 271.378 56.6317 271.726 56.5414C272.076 56.4494 272.494 56.4033 272.98 56.4033C273.465 56.4033 273.881 56.4494 274.229 56.5414C274.577 56.6317 274.844 56.7652 275.03 56.942C275.216 57.1169 275.309 57.3306 275.309 57.5829C275.309 57.8315 275.216 58.0433 275.03 58.2182C274.844 58.3932 274.577 58.5267 274.229 58.6188C273.881 58.7109 273.465 58.7569 272.98 58.7569ZM272.98 56.9613C272.478 56.9613 272.092 57.0147 271.823 57.1215C271.554 57.2284 271.421 57.3821 271.422 57.5829C271.419 57.7799 271.551 57.9319 271.82 58.0387C272.091 58.1436 272.478 58.1952 272.98 58.1934C273.479 58.1952 273.863 58.1436 274.132 58.0387C274.403 57.9319 274.54 57.7799 274.544 57.5829C274.542 57.3821 274.406 57.2284 274.135 57.1215C273.866 57.0147 273.481 56.9613 272.98 56.9613ZM269.795 59.1934H276.201V59.8011H273.348V61.674H272.613V59.8011H269.795V59.1934ZM284.168 54.6685V56.9834H285.165V57.6077H284.168V60.0221H283.428V54.6685H284.168ZM283.055 58.7293C282.401 58.8471 281.716 58.9254 281 58.9641C280.285 59.0009 279.53 59.0193 278.734 59.0193L278.651 58.4171C279.355 58.4171 279.948 58.4088 280.43 58.3923V57.7376C280.154 57.6989 279.911 57.6179 279.701 57.4945C279.491 57.3692 279.328 57.2109 279.212 57.0193C279.098 56.826 279.042 56.6105 279.044 56.3729C279.042 56.0985 279.115 55.8564 279.262 55.6464C279.409 55.4346 279.615 55.2707 279.878 55.1547C280.143 55.0368 280.445 54.9779 280.784 54.9779C281.123 54.9779 281.424 55.0368 281.687 55.1547C281.953 55.2707 282.16 55.4346 282.309 55.6464C282.458 55.8564 282.534 56.0985 282.535 56.3729C282.534 56.6068 282.476 56.8195 282.361 57.011C282.249 57.2026 282.09 57.361 281.883 57.4862C281.679 57.6096 281.442 57.6915 281.174 57.732V58.3591C281.86 58.3186 282.468 58.2597 282.997 58.1823L283.055 58.7293ZM279.734 56.3729C279.732 56.535 279.776 56.6786 279.864 56.8039C279.954 56.9273 280.079 57.0239 280.237 57.0939C280.397 57.1621 280.58 57.1971 280.784 57.1989C280.99 57.1971 281.173 57.1621 281.331 57.0939C281.489 57.0258 281.613 56.93 281.701 56.8066C281.79 56.6814 281.835 56.5368 281.837 56.3729C281.835 56.2072 281.79 56.0617 281.701 55.9365C281.613 55.8112 281.489 55.7145 281.331 55.6464C281.173 55.5783 280.99 55.5442 280.784 55.5442C280.58 55.5442 280.397 55.5783 280.237 55.6464C280.077 55.7145 279.953 55.8112 279.864 55.9365C279.776 56.0617 279.732 56.2072 279.734 56.3729ZM279.64 59.5525H280.386V60.9033H284.419V61.5138H279.64V59.5525ZM285.933 57.4917C286.364 57.4328 286.763 57.314 287.129 57.1354C287.496 56.9549 287.788 56.7366 288.008 56.4807C288.227 56.2228 288.34 55.953 288.347 55.6713H286.168V55.0801H291.358V55.6713H289.187C289.193 55.953 289.304 56.2228 289.521 56.4807C289.739 56.7366 290.031 56.9549 290.397 57.1354C290.765 57.314 291.168 57.4328 291.604 57.4917L291.331 58.0773C290.948 58.0166 290.588 57.9153 290.251 57.7735C289.914 57.6317 289.616 57.4549 289.358 57.2431C289.102 57.0313 288.904 56.7947 288.764 56.5331C288.624 56.7947 288.426 57.0313 288.17 57.2431C287.915 57.4549 287.619 57.6317 287.284 57.7735C286.949 57.9153 286.591 58.0166 286.212 58.0773L285.933 57.4917ZM285.577 58.6077H291.958V59.2127H289.115V61.6602H288.386V59.2127H285.577V58.6077ZM294.784 57.2541C295.246 57.2136 295.656 57.1326 296.013 57.011C296.37 56.8877 296.653 56.733 296.861 56.547C297.071 56.3591 297.189 56.151 297.214 55.9227H295.085V55.337H297.264V54.6436H297.993V55.337H300.184V55.9227H298.043C298.067 56.151 298.183 56.3591 298.391 56.547C298.599 56.733 298.882 56.8877 299.239 57.011C299.598 57.1326 300.01 57.2136 300.474 57.2541L300.239 57.8149C299.624 57.7578 299.087 57.6289 298.629 57.4282C298.172 57.2256 297.839 56.9622 297.629 56.6381C297.415 56.9622 297.08 57.2256 296.623 57.4282C296.167 57.6289 295.632 57.7578 295.018 57.8149L294.784 57.2541ZM300.825 58.1602V58.7569H297.993V59.4917H300.04V61.6464H299.295V60.0912H295.151V59.4917H297.264V58.7569H294.444V58.1602H300.825ZM306.811 57.5H307.932V58.116H306.811V61.663H306.076V54.663H306.811V57.5ZM303.046 54.7541H303.786V55.7597H305.466V56.3646H301.319V55.7597H303.046V54.7541ZM303.421 56.8812C303.751 56.8812 304.048 56.9512 304.311 57.0912C304.576 57.2293 304.783 57.4227 304.932 57.6713C305.083 57.918 305.159 58.198 305.159 58.511C305.159 58.826 305.083 59.1068 304.932 59.3536C304.783 59.6004 304.576 59.7928 304.311 59.9309C304.048 60.0691 303.751 60.1381 303.421 60.1381C303.088 60.1381 302.789 60.0691 302.524 59.9309C302.258 59.7928 302.051 59.6004 301.902 59.3536C301.753 59.1068 301.678 58.826 301.678 58.511C301.678 58.1961 301.753 57.9153 301.902 57.6685C302.051 57.4217 302.258 57.2293 302.524 57.0912C302.789 56.9512 303.088 56.8812 303.421 56.8812ZM303.421 59.5193C303.617 59.5193 303.792 59.4779 303.946 59.395C304.103 59.3103 304.225 59.1915 304.314 59.0387C304.404 58.8858 304.45 58.7099 304.452 58.511C304.45 58.314 304.404 58.1381 304.314 57.9834C304.225 57.8287 304.103 57.709 303.946 57.6243C303.792 57.5378 303.617 57.4945 303.421 57.4945C303.222 57.4945 303.044 57.5378 302.885 57.6243C302.729 57.709 302.606 57.8287 302.518 57.9834C302.43 58.1381 302.386 58.314 302.388 58.511C302.386 58.7099 302.43 58.8858 302.518 59.0387C302.606 59.1915 302.729 59.3103 302.885 59.395C303.044 59.4779 303.222 59.5193 303.421 59.5193ZM315.725 54.663V56.4254H316.739V57.0442H315.725V58.8867H314.982V54.663H315.725ZM312.28 56.9751C312.127 57.3729 311.905 57.7192 311.612 58.0138C311.321 58.3066 310.974 58.5276 310.57 58.6768L310.17 58.0884C310.527 57.9613 310.835 57.779 311.095 57.5414C311.355 57.302 311.553 57.0258 311.689 56.7127C311.827 56.3996 311.897 56.0691 311.899 55.721V55.0276H312.634V55.7845C312.634 56.0902 312.702 56.3831 312.838 56.663C312.976 56.9429 313.173 57.1906 313.427 57.4061C313.683 57.6215 313.982 57.7855 314.324 57.8978L313.929 58.4807C313.55 58.3462 313.219 58.1492 312.935 57.8895C312.653 57.6298 312.435 57.325 312.28 56.9751ZM313.463 59.0525C313.941 59.0525 314.355 59.1041 314.703 59.2072C315.053 59.3103 315.321 59.4595 315.507 59.6547C315.695 59.8481 315.789 60.0792 315.789 60.3481C315.789 60.6225 315.695 60.8573 315.507 61.0525C315.321 61.2477 315.054 61.3959 314.706 61.4972C314.358 61.6004 313.943 61.6519 313.463 61.6519C312.978 61.6519 312.56 61.6004 312.208 61.4972C311.857 61.3959 311.586 61.2477 311.396 61.0525C311.208 60.8573 311.115 60.6225 311.115 60.3481C311.115 60.0792 311.208 59.8481 311.396 59.6547C311.586 59.4595 311.857 59.3103 312.208 59.2072C312.562 59.1041 312.98 59.0525 313.463 59.0525ZM313.463 61.0691C313.971 61.0654 314.364 61.0018 314.642 60.8785C314.922 60.7551 315.062 60.5783 315.062 60.3481C315.062 60.2007 314.998 60.0746 314.871 59.9696C314.746 59.8628 314.563 59.7818 314.322 59.7265C314.082 59.6694 313.796 59.6409 313.463 59.6409C313.127 59.6409 312.839 59.6694 312.598 59.7265C312.357 59.7818 312.173 59.8628 312.045 59.9696C311.918 60.0746 311.856 60.2007 311.858 60.3481C311.856 60.5009 311.917 60.6308 312.043 60.7376C312.17 60.8444 312.354 60.9263 312.595 60.9834C312.836 61.0387 313.126 61.0672 313.463 61.0691ZM323.545 57.5746V58.1796H317.139V57.5746H321.805C321.886 57.2081 321.937 56.8785 321.96 56.5856C321.983 56.291 321.995 55.9696 321.995 55.6215H317.94V55.0193H322.733V55.5497C322.733 55.7983 322.729 56.0147 322.722 56.1989C322.716 56.3831 322.701 56.593 322.675 56.8287C322.649 57.0626 322.608 57.3112 322.551 57.5746H323.545ZM322.741 61.5746H317.918V59.0691H322.741V61.5746ZM322.006 59.6519H318.645V60.9724H322.006V59.6519ZM331.506 54.663V56.3204H332.52V56.9365H331.506V58.7514H330.763V54.663H331.506ZM328.841 55.0635H329.575V58.3453H326.274V55.0635H327.006V56.0773H328.841V55.0635ZM327.006 57.7541H328.841V56.663H327.006V57.7541ZM331.556 59.7072H327.788V60.9724H331.689V61.5663H327.045V59.116H331.556V59.7072ZM337.992 61.663V54.663H338.738V61.663H337.992ZM336.658 55.4171C336.654 56.5018 336.394 57.4641 335.876 58.3039C335.36 59.1436 334.528 59.8379 333.379 60.3867L332.987 59.7873C333.904 59.3508 334.6 58.8195 335.075 58.1934C335.552 57.5654 335.827 56.837 335.901 56.0083H333.326V55.4171H336.658Z" fill="black"/>
<rect x="24" y="5" width="108" height="24" rx="4" fill="#3C68FA" stroke="#E3E3E3"/>
<rect x="21" y="1" width="108" height="24" rx="4" fill="white" stroke="#CACACA" stroke-width="0.5"/>
<path d="M28.7447 10.3425H29.5845V16H28.7226V11.2044H28.6895L27.3387 12.0856V11.2652L28.7447 10.3425ZM32.2875 16.0525C32.1862 16.0525 32.0923 16.0276 32.0058 15.9779C31.921 15.9282 31.8538 15.861 31.8041 15.7762C31.7544 15.6915 31.7304 15.5994 31.7323 15.5C31.7304 15.4006 31.7544 15.3085 31.8041 15.2238C31.8538 15.139 31.921 15.0718 32.0058 15.0221C32.0923 14.9724 32.1862 14.9475 32.2875 14.9475C32.3851 14.9475 32.4763 14.9724 32.561 15.0221C32.6457 15.0718 32.7129 15.139 32.7627 15.2238C32.8142 15.3085 32.84 15.4006 32.84 15.5C32.84 15.5994 32.8142 15.6915 32.7627 15.7762C32.7129 15.861 32.6457 15.9282 32.561 15.9779C32.4763 16.0276 32.3851 16.0525 32.2875 16.0525ZM41.7127 12.4061H42.8343V13.0331H41.7127V16.663H40.9696V9.66298H41.7127V12.4061ZM39.8011 14.9061H36.5249V10.3564H39.8011V14.9061ZM39.0608 10.9448H37.2514V14.3066H39.0608V10.9448ZM46.3588 9.80939C46.8689 9.80939 47.3119 9.8628 47.6875 9.96961C48.0632 10.0764 48.3514 10.2311 48.5522 10.4337C48.7548 10.6363 48.8561 10.8766 48.8561 11.1547C48.8561 11.4291 48.7548 11.6657 48.5522 11.8646C48.3496 12.0635 48.0605 12.2164 47.6848 12.3232C47.3109 12.4282 46.8689 12.4807 46.3588 12.4807C45.8505 12.4807 45.4076 12.4282 45.0301 12.3232C44.6544 12.2164 44.3643 12.0635 44.1599 11.8646C43.9573 11.6657 43.8561 11.4291 43.8561 11.1547C43.8561 10.8766 43.9573 10.6363 44.1599 10.4337C44.3643 10.2311 44.6544 10.0764 45.0301 9.96961C45.4076 9.8628 45.8505 9.80939 46.3588 9.80939ZM46.3588 10.3978C45.9997 10.3978 45.6903 10.4273 45.4306 10.4862C45.171 10.5451 44.9712 10.6317 44.8312 10.7459C44.6931 10.8582 44.6249 10.9945 44.6268 11.1547C44.6249 11.3094 44.6931 11.442 44.8312 11.5525C44.9712 11.663 45.171 11.7486 45.4306 11.8094C45.6921 11.8683 46.0015 11.8978 46.3588 11.8978C46.7142 11.8978 47.0227 11.8683 47.2842 11.8094C47.5457 11.7486 47.7465 11.663 47.8864 11.5525C48.0264 11.442 48.0964 11.3094 48.0964 11.1547C48.0964 10.9945 48.0264 10.8582 47.8864 10.7459C47.7465 10.6317 47.5457 10.5451 47.2842 10.4862C47.0246 10.4273 46.7161 10.3978 46.3588 10.3978ZM43.1737 13.0193H49.5549V13.6188H43.1737V13.0193ZM43.9389 14.2459H48.7759V16.5746H43.9389V14.2459ZM48.0549 14.837H44.671V15.9724H48.0549V14.837ZM55.3944 16.663V9.66298H56.1071V16.663H55.3944ZM53.9773 12.3453V9.79834H54.6845V16.3177H53.9773V12.9475H53.19C53.1679 13.4006 53.0915 13.7937 52.9607 14.1271C52.83 14.4586 52.6541 14.7136 52.4331 14.8923C52.2121 15.0691 51.958 15.1575 51.6707 15.1575C51.3686 15.1575 51.1044 15.058 50.8778 14.8591C50.6513 14.6584 50.4755 14.372 50.3502 14C50.2268 13.6262 50.1651 13.1878 50.1651 12.6851C50.1651 12.186 50.2268 11.7514 50.3502 11.3812C50.4755 11.0092 50.6513 10.7238 50.8778 10.5249C51.1044 10.3241 51.3686 10.2238 51.6707 10.2238C51.9524 10.2238 52.202 10.3094 52.4193 10.4807C52.6384 10.6501 52.8134 10.895 52.9441 11.2155C53.0767 11.5341 53.1578 11.9107 53.1872 12.3453H53.9773ZM51.6707 14.4503C51.8419 14.4521 51.9902 14.384 52.1154 14.2459C52.2425 14.1059 52.3392 13.9033 52.4055 13.6381C52.4736 13.3711 52.5077 13.0534 52.5077 12.6851C52.5077 12.3168 52.4736 12.0009 52.4055 11.7376C52.3392 11.4724 52.2425 11.2698 52.1154 11.1298C51.9902 10.9899 51.8419 10.9199 51.6707 10.9199C51.5031 10.9199 51.3576 10.9899 51.2342 11.1298C51.1108 11.2698 51.016 11.4724 50.9497 11.7376C50.8852 12.0028 50.8539 12.3186 50.8557 12.6851C50.8539 13.0534 50.8852 13.3702 50.9497 13.6354C51.016 13.9006 51.1108 14.1031 51.2342 14.2431C51.3576 14.3831 51.5031 14.4521 51.6707 14.4503ZM60.4826 12.9862H64.6235V13.5912H59.7506V10.2928H64.5627V10.9006H60.4826V12.9862ZM58.955 15.7403V15.1243H65.3611V15.7403H58.955ZM67.4464 11.7127H71.5348V12.3066H66.7116V9.91713H67.4464V11.7127ZM65.858 13.7818V13.1878H72.2641V13.7818H65.858ZM66.6591 14.4475H67.3967V15.8923H71.579V16.4972H66.6591V14.4475ZM79.9987 11.8149H79.2031V13.337H78.4931V9.79834H79.2031V11.2127H79.9987V9.66851H80.7003V13.3867H79.9987V11.8149ZM77.9351 13.2099C77.6036 13.1013 77.3163 12.9401 77.0732 12.7265C76.832 12.5129 76.6451 12.2652 76.5125 11.9834C76.3817 12.2891 76.1948 12.5608 75.9517 12.7983C75.7104 13.0341 75.4241 13.2145 75.0926 13.3398L74.75 12.779C75.0337 12.6703 75.2804 12.523 75.4904 12.337C75.7022 12.1492 75.8642 11.9411 75.9766 11.7127C76.0907 11.4825 76.1488 11.2523 76.1506 11.0221V11.0028H74.9296V10.4116H76.1506V9.69889H76.8523V10.4116H78.0511V11.0028H76.8523V11.0221C76.8523 11.2449 76.9084 11.4641 77.0208 11.6796C77.1349 11.8932 77.2988 12.0866 77.5125 12.2597C77.7261 12.4328 77.9756 12.5681 78.2611 12.6657L77.9351 13.2099ZM76.7556 15.3674V16.011H80.9683V16.5746H76.0208V14.8177H79.9738V14.2459H76.0069V13.6796H80.7003V15.3674H76.7556ZM86.7138 9.66851H87.4459V14.8204H86.7138V9.66851ZM86.0232 13.6243C85.502 13.7164 84.9882 13.7781 84.4818 13.8094C83.9772 13.8407 83.3501 13.8573 82.6006 13.8591H82.0177V11.6768H84.4845V10.7514H82.0039V10.1519H85.2194V12.2431H82.7415V13.2486C83.4357 13.2468 84.0205 13.2302 84.4956 13.1989C84.9707 13.1676 85.4532 13.1077 85.9431 13.0193L86.0232 13.6243ZM83.5619 14.4116V15.9116H87.6448V16.5193H82.816V14.4116H83.5619ZM93.6168 16.663V9.66298H94.3627V16.663H93.6168ZM91.1389 11.7293C91.1389 12.1142 91.2172 12.4972 91.3737 12.8785C91.5321 13.2578 91.7513 13.5967 92.0312 13.895C92.313 14.1915 92.6307 14.4153 92.9842 14.5663L92.5782 15.1519C92.1693 14.9715 91.8075 14.6998 91.4925 14.337C91.1795 13.9724 90.94 13.5552 90.7743 13.0856C90.6656 13.4171 90.522 13.7293 90.3434 14.0221C90.1666 14.3131 89.9612 14.5709 89.7273 14.7956C89.4953 15.0184 89.2458 15.1952 88.9787 15.326L88.545 14.7403C88.8894 14.5801 89.2016 14.3389 89.4815 14.0166C89.7633 13.6943 89.9842 13.3315 90.1445 12.9282C90.3047 12.5249 90.3857 12.1252 90.3876 11.7293V10.9807H88.7909V10.3674H92.7356V10.9807H91.1389V11.7293ZM103.266 14.8895H102.525V11.8757H101.05V11.2624H102.525V9.66851H103.266V14.8895ZM99.5448 12.1657C99.3919 12.5727 99.1673 12.9291 98.8708 13.2348C98.5761 13.5387 98.2253 13.7689 97.8183 13.9254L97.4233 13.3315C97.7787 13.2063 98.0872 13.0221 98.3487 12.779C98.612 12.5341 98.8128 12.2514 98.9509 11.9309C99.0908 11.6105 99.1617 11.2753 99.1636 10.9254V10.0912H99.9012V10.942C99.9012 11.2606 99.9684 11.5681 100.103 11.8646C100.239 12.1611 100.434 12.4245 100.688 12.6547C100.944 12.8831 101.245 13.058 101.589 13.1796L101.18 13.7597C100.803 13.6142 100.474 13.4033 100.194 13.1271C99.914 12.8508 99.6977 12.5304 99.5448 12.1657ZM99.4426 14.3094V15.9116H103.423V16.5193H98.694V14.3094H99.4426ZM109.608 11.4558V9.66851H110.31V13.9199H109.608V12.058H108.752V13.8702H108.058V9.79834H108.752V11.4558H109.608ZM107.691 13.395C107.299 13.4705 106.914 13.5212 106.536 13.547C106.161 13.5709 105.677 13.5829 105.086 13.5829H104.633V10.1602H107.368V10.7652H105.346V11.5442H107.293V12.1188H105.346V12.9696C105.845 12.9659 106.262 12.9521 106.597 12.9282C106.932 12.9024 107.271 12.8564 107.614 12.7901L107.691 13.395ZM109.578 14.8591H105.553V14.2597H110.31V16.663H109.578V14.8591ZM116.713 12.5H117.834V13.116H116.713V16.663H115.978V9.66298H116.713V12.5ZM112.948 9.75414H113.688V10.7597H115.367V11.3646H111.221V10.7597H112.948V9.75414ZM113.323 11.8812C113.653 11.8812 113.949 11.9512 114.213 12.0912C114.478 12.2293 114.685 12.4227 114.834 12.6713C114.985 12.918 115.061 13.198 115.061 13.511C115.061 13.826 114.985 14.1068 114.834 14.3536C114.685 14.6004 114.478 14.7928 114.213 14.9309C113.949 15.0691 113.653 15.1381 113.323 15.1381C112.99 15.1381 112.691 15.0691 112.425 14.9309C112.16 14.7928 111.953 14.6004 111.804 14.3536C111.655 14.1068 111.58 13.826 111.58 13.511C111.58 13.1961 111.655 12.9153 111.804 12.6685C111.953 12.4217 112.16 12.2293 112.425 12.0912C112.691 11.9512 112.99 11.8812 113.323 11.8812ZM113.323 14.5193C113.518 14.5193 113.693 14.4779 113.848 14.395C114.005 14.3103 114.127 14.1915 114.215 14.0387C114.306 13.8858 114.352 13.7099 114.354 13.511C114.352 13.314 114.306 13.1381 114.215 12.9834C114.127 12.8287 114.005 12.709 113.848 12.6243C113.693 12.5378 113.518 12.4945 113.323 12.4945C113.124 12.4945 112.946 12.5378 112.787 12.6243C112.631 12.709 112.508 12.8287 112.42 12.9834C112.331 13.1381 112.288 13.314 112.29 13.511C112.288 13.7099 112.331 13.8858 112.42 14.0387C112.508 14.1915 112.631 14.3103 112.787 14.395C112.946 14.4779 113.124 14.5193 113.323 14.5193ZM123.246 16.663V9.66298H123.991V16.663H123.246ZM121.911 10.4171C121.908 11.5018 121.647 12.4641 121.13 13.3039C120.614 14.1436 119.781 14.8379 118.632 15.3867L118.24 14.7873C119.157 14.3508 119.853 13.8195 120.328 13.1934C120.805 12.5654 121.081 11.837 121.154 11.0083H118.58V10.4171H121.911Z" fill="black"/>
<defs>
<filter id="filter0_d" x="0" y="18" width="368" height="46" filterUnits="userSpaceOnUse" color-interpolation-filters="sRGB">
<feFlood flood-opacity="0" result="BackgroundImageFix"/>
<feColorMatrix in="SourceAlpha" type="matrix" values="0 0 0 0 0 0 0 0 0 0 0 0 0 0 0 0 0 0 127 0" result="hardAlpha"/>
<feOffset dy="4"/>
<feGaussianBlur stdDeviation="2"/>
<feComposite in2="hardAlpha" operator="out"/>
<feColorMatrix type="matrix" values="0 0 0 0 0 0 0 0 0 0 0 0 0 0 0 0 0 0 0.1 0"/>
<feBlend mode="normal" in2="BackgroundImageFix" result="effect1_dropShadow"/>
<feBlend mode="normal" in="SourceGraphic" in2="effect1_dropShadow" result="shape"/>
</filter>
<linearGradient id="paint0_linear" x1="256.311" y1="18" x2="-13.951" y2="18" gradientUnits="userSpaceOnUse">
<stop stop-color="#809DFF"/>
<stop offset="0.453125" stop-color="#9BB6FB" stop-opacity="0.710678"/>
<stop offset="0.489583" stop-color="#90B0FB" stop-opacity="0.64063"/>
<stop offset="0.9999" stop-color="#4089FE" stop-opacity="0.0978689"/>
<stop offset="1" stop-color="#0C6BFA" stop-opacity="0"/>
</linearGradient>
</defs>
</svg>
